<svg version="1.1" xmlns="http://www.w3.org/2000/svg" xmlns:xlink="http://www.w3.org/1999/xlink">
  <!-- logo -->
    <symbol id="logo" viewBox="0 0 190 39">
        <path d="M27.3619 7.96804L31.4301 0.00195312L38.6864 12.5042L32.1996 24.4532H26.7021L33.519 12.6148L30.847 8.00906L27.3619 7.96804Z" fill="#EF7A1C"/>
        <path d="M19.5532 26.6186L22.1888 31.2292H35.5953L42.4705 19.472L40.007 15.0342L33.2258 26.5927L19.5532 26.6186Z" fill="#EF7A1C"/>
        <path d="M34.5856 33.2505L32.0377 38.0049H18.223L11.7734 26.0192L14.2418 21.7041L20.8904 33.1306L34.5856 33.2505Z" fill="#818282"/>
        <path d="M15.9781 14.0781H10.7515L3.88867 25.9703L10.5242 38.0001H15.7054L9.11527 25.9243L15.9781 14.0781Z" fill="#818282"/>
        <path d="M7.88525 5.51866L10.85 0.851562H24.3044L26.9498 5.51866L25.399 9.27057H29.276L31.3282 12.5195L28.5462 16.729L21.5224 5.61018L7.88525 5.51866Z" fill="#BABABA"/>
        <path d="M0 19.2504L2.92303 23.7149L9.69204 12.0344H23.1275L20.3584 7.41406H6.97427L0 19.2504Z" fill="#BABABA"/>
        <path d="M51.9008 20.7812V4.47894H57.2785C58.436 4.47894 59.4657 4.67436 60.3676 5.06519C61.277 5.44851 61.9873 6.01973 62.4984 6.77885C63.017 7.53046 63.2763 8.46245 63.2763 9.57482C63.2763 10.6646 63.032 11.5929 62.5435 12.3595C62.0549 13.1186 61.3785 13.6974 60.5142 14.0957C59.6573 14.4941 58.6615 14.6933 57.5265 14.6933H53.7272V20.7812H51.9008ZM53.7159 13.1487H57.4927C58.6878 13.1487 59.6573 12.8218 60.4014 12.1679C61.153 11.514 61.5288 10.6158 61.5288 9.47335C61.5288 8.31588 61.1455 7.44778 60.3789 6.86904C59.6122 6.29031 58.6088 6.00094 57.3687 6.00094H53.7159V13.1487ZM84.761 4.47894L80.0259 20.7812H78.2897L74.5692 7.60186L70.7924 20.7812H69.1126L64.4564 4.47894H66.249L70.0145 18.0642L73.8702 4.47894H75.302L79.124 18.0642L82.9797 4.47894H84.761ZM98.9374 20.7812H97.0547L93.9881 13.5546H89.3094V20.7812H87.5506V4.47894H93.7063C94.8487 4.47894 95.807 4.65181 96.5811 4.99755C97.3628 5.33577 97.9491 5.82807 98.3399 6.47445C98.7383 7.12083 98.9374 7.9025 98.9374 8.81946C98.9374 9.70635 98.7721 10.4467 98.4414 11.0405C98.1182 11.6267 97.7086 12.0965 97.2125 12.4497C96.7164 12.7954 96.2053 13.0548 95.6792 13.2276L98.9374 20.7812ZM93.0073 12.0438C94.3301 12.0438 95.3448 11.7921 96.0513 11.2885C96.7653 10.7774 97.1223 9.99572 97.1223 8.94347C97.1223 7.92881 96.8104 7.18096 96.1866 6.69993C95.5627 6.21139 94.6909 5.96712 93.571 5.96712H89.3094V12.0438H93.0073ZM107.571 21.0067C106.812 21.0067 106.079 20.9128 105.373 20.7249C104.674 20.5295 104.035 20.2439 103.456 19.8681C102.885 19.4922 102.412 19.03 102.036 18.4813C101.66 17.9252 101.416 17.2788 101.303 16.5422H103.163C103.314 17.1961 103.599 17.7448 104.02 18.1882C104.441 18.6241 104.96 18.9549 105.576 19.1803C106.192 19.3983 106.854 19.5073 107.56 19.5073C108.372 19.5073 109.093 19.3908 109.725 19.1578C110.356 18.9248 110.852 18.5941 111.213 18.1657C111.581 17.7373 111.765 17.2374 111.765 16.6662C111.765 16.1476 111.656 15.6966 111.438 15.3133C111.22 14.93 110.901 14.6106 110.48 14.355C110.059 14.092 109.537 13.8853 108.913 13.735L105.621 12.9458C104.426 12.6752 103.49 12.213 102.814 11.5591C102.145 10.8976 101.807 10.0295 101.799 8.95475C101.799 8.03779 102.04 7.22981 102.521 6.53082C103.009 5.82431 103.678 5.27188 104.527 4.87353C105.384 4.47518 106.369 4.27601 107.481 4.27601C108.766 4.27601 109.838 4.49773 110.694 4.94118C111.559 5.38462 112.213 5.96336 112.656 6.67738C113.099 7.39141 113.321 8.14677 113.321 8.94347H111.484C111.416 8.1618 111.187 7.54173 110.796 7.08325C110.405 6.62477 109.92 6.29782 109.341 6.10241C108.77 5.90699 108.15 5.80928 107.481 5.80928C107.015 5.80928 106.553 5.87317 106.095 6.00094C105.644 6.1212 105.234 6.30534 104.866 6.55337C104.497 6.8014 104.204 7.11332 103.986 7.48912C103.768 7.86492 103.659 8.30461 103.659 8.80818C103.659 9.4245 103.87 9.92808 104.291 10.3189C104.719 10.7022 105.486 11.0367 106.591 11.3223L109.781 12.1002C110.548 12.2731 111.175 12.5211 111.664 12.8443C112.16 13.1675 112.547 13.5395 112.825 13.9604C113.103 14.3738 113.295 14.8097 113.4 15.2682C113.513 15.7267 113.569 16.1814 113.569 16.6324C113.569 17.4366 113.336 18.1694 112.87 18.8308C112.404 19.4922 111.724 20.0221 110.83 20.4205C109.935 20.8113 108.849 21.0067 107.571 21.0067ZM127.94 21.0067C127.181 21.0067 126.448 20.9128 125.741 20.7249C125.042 20.5295 124.403 20.2439 123.825 19.8681C123.253 19.4922 122.78 19.03 122.404 18.4813C122.028 17.9252 121.784 17.2788 121.671 16.5422H123.531C123.682 17.1961 123.967 17.7448 124.388 18.1882C124.809 18.6241 125.328 18.9549 125.944 19.1803C126.56 19.3983 127.222 19.5073 127.928 19.5073C128.74 19.5073 129.462 19.3908 130.093 19.1578C130.724 18.9248 131.22 18.5941 131.581 18.1657C131.949 17.7373 132.134 17.2374 132.134 16.6662C132.134 16.1476 132.025 15.6966 131.807 15.3133C131.589 14.93 131.269 14.6106 130.848 14.355C130.427 14.092 129.905 13.8853 129.281 13.735L125.989 12.9458C124.794 12.6752 123.858 12.213 123.182 11.5591C122.513 10.8976 122.175 10.0295 122.167 8.95475C122.167 8.03779 122.408 7.22981 122.889 6.53082C123.377 5.82431 124.046 5.27188 124.896 4.87353C125.752 4.47518 126.737 4.27601 127.849 4.27601C129.135 4.27601 130.206 4.49773 131.063 4.94118C131.927 5.38462 132.581 5.96336 133.024 6.67738C133.468 7.39141 133.689 8.14677 133.689 8.94347H131.852C131.784 8.1618 131.555 7.54173 131.164 7.08325C130.773 6.62477 130.288 6.29782 129.71 6.10241C129.138 5.90699 128.518 5.80928 127.849 5.80928C127.383 5.80928 126.921 5.87317 126.463 6.00094C126.012 6.1212 125.602 6.30534 125.234 6.55337C124.866 6.8014 124.572 7.11332 124.354 7.48912C124.137 7.86492 124.028 8.30461 124.028 8.80818C124.028 9.4245 124.238 9.92808 124.659 10.3189C125.087 10.7022 125.854 11.0367 126.959 11.3223L130.149 12.1002C130.916 12.2731 131.544 12.5211 132.032 12.8443C132.528 13.1675 132.915 13.5395 133.193 13.9604C133.471 14.3738 133.663 14.8097 133.768 15.2682C133.881 15.7267 133.937 16.1814 133.937 16.6324C133.937 17.4366 133.704 18.1694 133.238 18.8308C132.772 19.4922 132.092 20.0221 131.198 20.4205C130.303 20.8113 129.217 21.0067 127.94 21.0067ZM135.47 6.11368V4.47894H147.612V6.11368H142.584V20.7812H140.814V6.11368H135.47ZM147.316 20.7812L153.246 4.47894H155.298L161.206 20.7812H159.391L157.722 16.1363H150.834L149.12 20.7812H147.316ZM151.307 14.4678H157.215L154.284 6.2377L151.307 14.4678ZM164.465 4.47894H174.364V6.04604H166.292V11.7845H173.609V13.3516H166.292V20.7812H164.465V4.47894ZM177.743 4.47894H187.642V6.04604H179.57V11.7845H186.886V13.3516H179.57V20.7812H177.743V4.47894Z" fill="#818282"/>
        <path d="M57.0248 35.2188H55.7373L51.8866 30.9031V35.2188H50.8136V26.7067H51.8866V30.8316L55.6419 26.7067H56.8579L53.1622 30.8435L57.0248 35.2188ZM63.5956 32.0118C63.5956 32.5443 63.524 33.0172 63.381 33.4305C63.2459 33.8358 63.0472 34.1816 62.7849 34.4677C62.5306 34.7538 62.2166 34.9724 61.8431 35.1234C61.4775 35.2664 61.0682 35.338 60.6151 35.338C60.1939 35.338 59.8045 35.2664 59.4468 35.1234C59.0892 34.9724 58.7792 34.7538 58.5169 34.4677C58.2547 34.1816 58.048 33.8358 57.897 33.4305C57.754 33.0172 57.6824 32.5443 57.6824 32.0118C57.6824 31.3045 57.8016 30.7084 58.0401 30.2236C58.2785 29.7308 58.6203 29.3573 59.0653 29.103C59.5104 28.8407 60.0389 28.7095 60.6509 28.7095C61.2311 28.7095 61.7398 28.8407 62.1769 29.103C62.622 29.3573 62.9677 29.7308 63.2141 30.2236C63.4684 30.7084 63.5956 31.3045 63.5956 32.0118ZM58.7673 32.0118C58.7673 32.5125 58.8309 32.9497 58.958 33.3232C59.0932 33.6888 59.2998 33.971 59.578 34.1696C59.8561 34.3683 60.2098 34.4677 60.639 34.4677C61.0682 34.4677 61.4218 34.3683 61.7 34.1696C61.9782 33.971 62.1809 33.6888 62.308 33.3232C62.4431 32.9497 62.5107 32.5125 62.5107 32.0118C62.5107 31.5032 62.4431 31.07 62.308 30.7124C62.1729 30.3547 61.9663 30.0805 61.6881 29.8898C61.4179 29.6911 61.0642 29.5917 60.6271 29.5917C59.9754 29.5917 59.5025 29.8063 59.2084 30.2355C58.9143 30.6647 58.7673 31.2568 58.7673 32.0118ZM68.2983 28.7095C69.0851 28.7095 69.7169 28.9837 70.1938 29.5321C70.6786 30.0805 70.921 30.9071 70.921 32.0118C70.921 32.7351 70.8097 33.3471 70.5872 33.8478C70.3726 34.3405 70.0666 34.7141 69.6692 34.9684C69.2798 35.2148 68.8188 35.338 68.2863 35.338C67.9605 35.338 67.6704 35.2943 67.4161 35.2068C67.1617 35.1194 66.9432 35.0081 66.7604 34.873C66.5855 34.73 66.4345 34.575 66.3073 34.4081H66.2358C66.2517 34.5432 66.2676 34.7141 66.2835 34.9207C66.2994 35.1274 66.3073 35.3062 66.3073 35.4572V38.0799H65.2582V28.8288H66.1166L66.2597 29.699H66.3073C66.4345 29.5162 66.5855 29.3493 66.7604 29.1983C66.9432 29.0473 67.1578 28.9281 67.4041 28.8407C67.6585 28.7533 67.9565 28.7095 68.2983 28.7095ZM68.1075 29.5917C67.6783 29.5917 67.3326 29.6752 67.0703 29.8421C66.8081 30.0011 66.6173 30.2435 66.4981 30.5693C66.3789 30.8952 66.3153 31.3085 66.3073 31.8092V32.0118C66.3073 32.5364 66.363 32.9815 66.4742 33.3471C66.5855 33.7127 66.7723 33.9908 67.0346 34.1816C67.3048 34.3723 67.6704 34.4677 68.1314 34.4677C68.5208 34.4677 68.8387 34.3604 69.0851 34.1458C69.3394 33.9312 69.5262 33.6411 69.6454 33.2755C69.7726 32.902 69.8361 32.4768 69.8361 31.9999C69.8361 31.2687 69.6931 30.6846 69.407 30.2474C69.1288 29.8103 68.6956 29.5917 68.1075 29.5917ZM77.9933 28.8288V35.2188H76.9442V29.7229H73.6419V35.2188H72.5928V28.8288H77.9933ZM85.5877 32.0118C85.5877 32.5443 85.5161 33.0172 85.3731 33.4305C85.238 33.8358 85.0393 34.1816 84.777 34.4677C84.5227 34.7538 84.2087 34.9724 83.8352 35.1234C83.4696 35.2664 83.0603 35.338 82.6073 35.338C82.186 35.338 81.7966 35.2664 81.4389 35.1234C81.0813 34.9724 80.7713 34.7538 80.5091 34.4677C80.2468 34.1816 80.0401 33.8358 79.8891 33.4305C79.7461 33.0172 79.6746 32.5443 79.6746 32.0118C79.6746 31.3045 79.7938 30.7084 80.0322 30.2236C80.2706 29.7308 80.6124 29.3573 81.0575 29.103C81.5025 28.8407 82.0311 28.7095 82.643 28.7095C83.2232 28.7095 83.7319 28.8407 84.169 29.103C84.6141 29.3573 84.9598 29.7308 85.2062 30.2236C85.4605 30.7084 85.5877 31.3045 85.5877 32.0118ZM80.7594 32.0118C80.7594 32.5125 80.823 32.9497 80.9502 33.3232C81.0853 33.6888 81.2919 33.971 81.5701 34.1696C81.8483 34.3683 82.2019 34.4677 82.6311 34.4677C83.0603 34.4677 83.414 34.3683 83.6921 34.1696C83.9703 33.971 84.173 33.6888 84.3001 33.3232C84.4352 32.9497 84.5028 32.5125 84.5028 32.0118C84.5028 31.5032 84.4352 31.07 84.3001 30.7124C84.165 30.3547 83.9584 30.0805 83.6802 29.8898C83.41 29.6911 83.0563 29.5917 82.6192 29.5917C81.9675 29.5917 81.4946 29.8063 81.2005 30.2355C80.9065 30.6647 80.7594 31.2568 80.7594 32.0118ZM90.2904 28.7095C91.0772 28.7095 91.7091 28.9837 92.1859 29.5321C92.6707 30.0805 92.9131 30.9071 92.9131 32.0118C92.9131 32.7351 92.8019 33.3471 92.5793 33.8478C92.3647 34.3405 92.0588 34.7141 91.6614 34.9684C91.2719 35.2148 90.811 35.338 90.2785 35.338C89.9526 35.338 89.6625 35.2943 89.4082 35.2068C89.1539 35.1194 88.9353 35.0081 88.7525 34.873C88.5776 34.73 88.4266 34.575 88.2995 34.4081H88.2279C88.2438 34.5432 88.2597 34.7141 88.2756 34.9207C88.2915 35.1274 88.2995 35.3062 88.2995 35.4572V38.0799H87.2504V28.8288H88.1087L88.2518 29.699H88.2995C88.4266 29.5162 88.5776 29.3493 88.7525 29.1983C88.9353 29.0473 89.1499 28.9281 89.3963 28.8407C89.6506 28.7533 89.9486 28.7095 90.2904 28.7095ZM90.0996 29.5917C89.6705 29.5917 89.3247 29.6752 89.0625 29.8421C88.8002 30.0011 88.6094 30.2435 88.4902 30.5693C88.371 30.8952 88.3074 31.3085 88.2995 31.8092V32.0118C88.2995 32.5364 88.3551 32.9815 88.4664 33.3471C88.5776 33.7127 88.7644 33.9908 89.0267 34.1816C89.2969 34.3723 89.6625 34.4677 90.1235 34.4677C90.5129 34.4677 90.8308 34.3604 91.0772 34.1458C91.3315 33.9312 91.5183 33.6411 91.6375 33.2755C91.7647 32.902 91.8283 32.4768 91.8283 31.9999C91.8283 31.2687 91.6852 30.6846 91.3991 30.2474C91.1209 29.8103 90.6878 29.5917 90.0996 29.5917ZM97.005 28.7215C97.7839 28.7215 98.3601 28.8923 98.7337 29.2341C99.1072 29.5759 99.294 30.1203 99.294 30.8674V35.2188H98.531L98.3283 34.3127H98.2807C98.0979 34.5432 97.9071 34.7379 97.7084 34.8969C97.5177 35.0479 97.2951 35.1591 97.0408 35.2307C96.7944 35.3022 96.4924 35.338 96.1348 35.338C95.7533 35.338 95.4075 35.2704 95.0976 35.1353C94.7956 35.0002 94.5571 34.7935 94.3823 34.5154C94.2074 34.2293 94.12 33.8716 94.12 33.4424C94.12 32.8066 94.3704 32.3178 94.8711 31.9761C95.3718 31.6264 96.1427 31.4356 97.1839 31.4038L98.2687 31.3681V30.9866C98.2687 30.4541 98.1535 30.0845 97.923 29.8779C97.6925 29.6712 97.3667 29.5679 96.9454 29.5679C96.6116 29.5679 96.2937 29.6196 95.9917 29.7229C95.6897 29.8183 95.4075 29.9295 95.1453 30.0567L94.8234 29.2699C95.1016 29.1189 95.4314 28.9917 95.8129 28.8884C96.1944 28.7771 96.5918 28.7215 97.005 28.7215ZM97.315 32.1311C96.5202 32.1628 95.9679 32.29 95.6579 32.5125C95.3559 32.7351 95.2049 33.049 95.2049 33.4544C95.2049 33.812 95.3122 34.0743 95.5268 34.2412C95.7493 34.4081 96.0314 34.4915 96.3732 34.4915C96.9136 34.4915 97.3627 34.3445 97.7203 34.0504C98.078 33.7484 98.2568 33.2874 98.2568 32.6675V32.0953L97.315 32.1311ZM105.679 29.711H103.592V35.2188H102.555V29.711H100.493V28.8288H105.679V29.711ZM107.927 32.7271C107.927 32.7987 107.923 32.902 107.915 33.0371C107.915 33.1643 107.911 33.3033 107.903 33.4544C107.895 33.5974 107.887 33.7365 107.879 33.8716C107.871 33.9988 107.863 34.1021 107.855 34.1816L111.277 28.8288H112.564V35.2188H111.587V31.4515C111.587 31.3244 111.587 31.1575 111.587 30.9508C111.595 30.7442 111.603 30.5415 111.611 30.3428C111.619 30.1362 111.626 29.9812 111.634 29.8779L108.237 35.2188H106.937V28.8288H107.927V32.7271ZM119.736 30.4382C119.736 30.8356 119.617 31.1455 119.378 31.3681C119.14 31.5906 118.834 31.7416 118.461 31.8211V31.8688C118.858 31.9244 119.204 32.0675 119.498 32.298C119.792 32.5205 119.939 32.8702 119.939 33.3471C119.939 33.6173 119.887 33.8676 119.784 34.0981C119.688 34.3286 119.537 34.5273 119.331 34.6942C119.124 34.8611 118.858 34.9922 118.532 35.0876C118.206 35.175 117.813 35.2188 117.352 35.2188H114.598V28.8288H117.34C117.793 28.8288 118.198 28.8804 118.556 28.9837C118.921 29.0791 119.208 29.246 119.414 29.4845C119.629 29.7149 119.736 30.0328 119.736 30.4382ZM118.854 33.3471C118.854 32.9815 118.715 32.7192 118.437 32.5602C118.158 32.4013 117.749 32.3218 117.209 32.3218H115.647V34.3723H117.233C117.757 34.3723 118.158 34.2968 118.437 34.1458C118.715 33.9868 118.854 33.7206 118.854 33.3471ZM118.675 30.5693C118.675 30.2673 118.564 30.0487 118.341 29.9136C118.127 29.7706 117.773 29.699 117.28 29.699H115.647V31.4515H117.09C117.606 31.4515 118 31.38 118.27 31.2369C118.54 31.0939 118.675 30.8713 118.675 30.5693ZM122.516 28.8288V31.4873H125.985V28.8288H127.034V35.2188H125.985V32.3695H122.516V35.2188H121.467V28.8288H122.516ZM129.058 35.2188V28.8288H130.107V31.4515H131.764C132.32 31.4515 132.777 31.5191 133.135 31.6542C133.492 31.7893 133.759 31.992 133.933 32.2622C134.108 32.5245 134.196 32.8583 134.196 33.2636C134.196 33.661 134.108 34.0067 133.933 34.3008C133.767 34.5949 133.5 34.8214 133.135 34.9803C132.777 35.1393 132.304 35.2188 131.716 35.2188H129.058ZM131.621 34.3723C132.074 34.3723 132.443 34.2968 132.729 34.1458C133.015 33.9868 133.159 33.7127 133.159 33.3232C133.159 32.9338 133.027 32.6715 132.765 32.5364C132.503 32.3933 132.125 32.3218 131.633 32.3218H130.107V34.3723H131.621ZM135.257 35.2188V28.8288H136.306V35.2188H135.257ZM143.51 26.1822C143.479 26.5796 143.379 26.9134 143.212 27.1836C143.053 27.4538 142.815 27.6565 142.497 27.7916C142.179 27.9267 141.766 27.9943 141.257 27.9943C140.741 27.9943 140.323 27.9267 140.005 27.7916C139.695 27.6565 139.469 27.4578 139.326 27.1955C139.183 26.9253 139.095 26.5875 139.064 26.1822H140.041C140.081 26.6113 140.192 26.9014 140.375 27.0524C140.566 27.1955 140.868 27.267 141.281 27.267C141.647 27.267 141.933 27.1915 142.139 27.0405C142.354 26.8816 142.481 26.5954 142.521 26.1822H143.51ZM139.326 32.7271C139.326 32.7987 139.322 32.902 139.314 33.0371C139.314 33.1643 139.31 33.3033 139.302 33.4544C139.294 33.5974 139.286 33.7365 139.278 33.8716C139.27 33.9988 139.262 34.1021 139.254 34.1816L142.676 28.8288H143.963V35.2188H142.986V31.4515C142.986 31.3244 142.986 31.1575 142.986 30.9508C142.994 30.7442 143.002 30.5415 143.01 30.3428C143.018 30.1362 143.026 29.9812 143.033 29.8779L139.636 35.2188H138.336V28.8288H139.326V32.7271ZM154.145 28.8288V35.2188H153.096V29.7229H149.794V35.2188H148.744V28.8288H154.145ZM161.739 32.0118C161.739 32.5443 161.668 33.0172 161.525 33.4305C161.39 33.8358 161.191 34.1816 160.929 34.4677C160.674 34.7538 160.36 34.9724 159.987 35.1234C159.621 35.2664 159.212 35.338 158.759 35.338C158.338 35.338 157.948 35.2664 157.591 35.1234C157.233 34.9724 156.923 34.7538 156.661 34.4677C156.398 34.1816 156.192 33.8358 156.041 33.4305C155.898 33.0172 155.826 32.5443 155.826 32.0118C155.826 31.3045 155.945 30.7084 156.184 30.2236C156.422 29.7308 156.764 29.3573 157.209 29.103C157.654 28.8407 158.183 28.7095 158.795 28.7095C159.375 28.7095 159.884 28.8407 160.321 29.103C160.766 29.3573 161.111 29.7308 161.358 30.2236C161.612 30.7084 161.739 31.3045 161.739 32.0118ZM156.911 32.0118C156.911 32.5125 156.975 32.9497 157.102 33.3232C157.237 33.6888 157.444 33.971 157.722 34.1696C158 34.3683 158.354 34.4677 158.783 34.4677C159.212 34.4677 159.566 34.3683 159.844 34.1696C160.122 33.971 160.325 33.6888 160.452 33.3232C160.587 32.9497 160.654 32.5125 160.654 32.0118C160.654 31.5032 160.587 31.07 160.452 30.7124C160.317 30.3547 160.11 30.0805 159.832 29.8898C159.562 29.6911 159.208 29.5917 158.771 29.5917C158.119 29.5917 157.646 29.8063 157.352 30.2355C157.058 30.6647 156.911 31.2568 156.911 32.0118ZM166.442 28.7095C167.229 28.7095 167.861 28.9837 168.338 29.5321C168.822 30.0805 169.065 30.9071 169.065 32.0118C169.065 32.7351 168.954 33.3471 168.731 33.8478C168.516 34.3405 168.21 34.7141 167.813 34.9684C167.424 35.2148 166.963 35.338 166.43 35.338C166.104 35.338 165.814 35.2943 165.56 35.2068C165.306 35.1194 165.087 35.0081 164.904 34.873C164.729 34.73 164.578 34.575 164.451 34.4081H164.38C164.395 34.5432 164.411 34.7141 164.427 34.9207C164.443 35.1274 164.451 35.3062 164.451 35.4572V38.0799H163.402V28.8288H164.26L164.403 29.699H164.451C164.578 29.5162 164.729 29.3493 164.904 29.1983C165.087 29.0473 165.302 28.9281 165.548 28.8407C165.802 28.7533 166.1 28.7095 166.442 28.7095ZM166.251 29.5917C165.822 29.5917 165.476 29.6752 165.214 29.8421C164.952 30.0011 164.761 30.2435 164.642 30.5693C164.523 30.8952 164.459 31.3085 164.451 31.8092V32.0118C164.451 32.5364 164.507 32.9815 164.618 33.3471C164.729 33.7127 164.916 33.9908 165.178 34.1816C165.449 34.3723 165.814 34.4677 166.275 34.4677C166.665 34.4677 166.982 34.3604 167.229 34.1458C167.483 33.9312 167.67 33.6411 167.789 33.2755C167.916 32.902 167.98 32.4768 167.98 31.9999C167.98 31.2687 167.837 30.6846 167.551 30.2474C167.273 29.8103 166.839 29.5917 166.251 29.5917ZM175.031 29.711H172.945V35.2188H171.908V29.711H169.845V28.8288H175.031V29.711ZM178.71 28.7215C179.489 28.7215 180.065 28.8923 180.439 29.2341C180.812 29.5759 180.999 30.1203 180.999 30.8674V35.2188H180.236L180.033 34.3127H179.986C179.803 34.5432 179.612 34.7379 179.413 34.8969C179.223 35.0479 179 35.1591 178.746 35.2307C178.499 35.3022 178.197 35.338 177.84 35.338C177.458 35.338 177.113 35.2704 176.803 35.1353C176.501 35.0002 176.262 34.7935 176.087 34.5154C175.912 34.2293 175.825 33.8716 175.825 33.4424C175.825 32.8066 176.075 32.3178 176.576 31.9761C177.077 31.6264 177.848 31.4356 178.889 31.4038L179.974 31.3681V30.9866C179.974 30.4541 179.858 30.0845 179.628 29.8779C179.398 29.6712 179.072 29.5679 178.65 29.5679C178.317 29.5679 177.999 29.6196 177.697 29.7229C177.395 29.8183 177.113 29.9295 176.85 30.0567L176.528 29.2699C176.807 29.1189 177.136 28.9917 177.518 28.8884C177.899 28.7771 178.297 28.7215 178.71 28.7215ZM179.02 32.1311C178.225 32.1628 177.673 32.29 177.363 32.5125C177.061 32.7351 176.91 33.049 176.91 33.4544C176.91 33.812 177.017 34.0743 177.232 34.2412C177.454 34.4081 177.736 34.4915 178.078 34.4915C178.619 34.4915 179.068 34.3445 179.425 34.0504C179.783 33.7484 179.962 33.2874 179.962 32.6675V32.0953L179.02 32.1311ZM187.837 35.2188H186.776V29.699H184.892C184.812 30.7084 184.713 31.5707 184.594 32.286C184.475 32.9934 184.324 33.5696 184.141 34.0147C183.958 34.4597 183.74 34.7856 183.485 34.9922C183.231 35.1989 182.933 35.3022 182.591 35.3022C182.488 35.3022 182.384 35.2943 182.281 35.2784C182.186 35.2704 182.106 35.2505 182.043 35.2188V34.4319C182.09 34.4478 182.142 34.4597 182.198 34.4677C182.253 34.4756 182.309 34.4796 182.365 34.4796C182.539 34.4796 182.698 34.4081 182.841 34.265C182.984 34.122 183.112 33.9034 183.223 33.6093C183.342 33.3153 183.449 32.9457 183.545 32.5006C183.64 32.0476 183.724 31.5151 183.795 30.9031C183.867 30.2911 183.93 29.5997 183.986 28.8288H187.837V35.2188Z" fill="#BABABA"/>
    </symbol>
<!-- новости -->
    <symbol id="news" viewBox="0 0 32 33">
        <path d="M29 6.73242C29.2652 6.73242 29.5196 6.83778 29.7071 7.02532C29.8946 7.21285 30 7.46721 30 7.73242V25.7324C30 25.9976 29.8946 26.252 29.7071 26.4395C29.5196 26.6271 29.2652 26.7324 29 26.7324H3C2.73478 26.7324 2.48043 26.6271 2.29289 26.4395C2.10536 26.252 2 25.9976 2 25.7324V7.73242C2 7.46721 2.10536 7.21285 2.29289 7.02532C2.48043 6.83778 2.73478 6.73242 3 6.73242H29ZM3 4.73242C2.20435 4.73242 1.44129 5.04849 0.87868 5.6111C0.31607 6.17371 0 6.93677 0 7.73242L0 25.7324C0 26.5281 0.31607 27.2911 0.87868 27.8537C1.44129 28.4164 2.20435 28.7324 3 28.7324H29C29.7956 28.7324 30.5587 28.4164 31.1213 27.8537C31.6839 27.2911 32 26.5281 32 25.7324V7.73242C32 6.93677 31.6839 6.17371 31.1213 5.6111C30.5587 5.04849 29.7956 4.73242 29 4.73242H3Z" fill="#4B4DF7"/>
        <path d="M6 17.7324C6 17.4672 6.10536 17.2129 6.29289 17.0253C6.48043 16.8378 6.73478 16.7324 7 16.7324H25C25.2652 16.7324 25.5196 16.8378 25.7071 17.0253C25.8946 17.2129 26 17.4672 26 17.7324C26 17.9976 25.8946 18.252 25.7071 18.4395C25.5196 18.6271 25.2652 18.7324 25 18.7324H7C6.73478 18.7324 6.48043 18.6271 6.29289 18.4395C6.10536 18.252 6 17.9976 6 17.7324ZM6 21.7324C6 21.4672 6.10536 21.2129 6.29289 21.0253C6.48043 20.8378 6.73478 20.7324 7 20.7324H19C19.2652 20.7324 19.5196 20.8378 19.7071 21.0253C19.8946 21.2129 20 21.4672 20 21.7324C20 21.9976 19.8946 22.252 19.7071 22.4395C19.5196 22.6271 19.2652 22.7324 19 22.7324H7C6.73478 22.7324 6.48043 22.6271 6.29289 22.4395C6.10536 22.252 6 21.9976 6 21.7324ZM6 11.7324C6 11.4672 6.10536 11.2129 6.29289 11.0253C6.48043 10.8378 6.73478 10.7324 7 10.7324H25C25.2652 10.7324 25.5196 10.8378 25.7071 11.0253C25.8946 11.2129 26 11.4672 26 11.7324V13.7324C26 13.9976 25.8946 14.252 25.7071 14.4395C25.5196 14.6271 25.2652 14.7324 25 14.7324H7C6.73478 14.7324 6.48043 14.6271 6.29289 14.4395C6.10536 14.252 6 13.9976 6 13.7324V11.7324Z" fill="#4B4DF7"/>
    </symbol>
    <!-- Личный кабинет -->
    <symbol id="personal-area" viewBox="0 0 32 33">
        <g clip-path="url(#clip0_28_333)">
        <path d="M22 10.7324C22 12.3237 21.3679 13.8498 20.2426 14.9751C19.1174 16.1003 17.5913 16.7324 16 16.7324C14.4087 16.7324 12.8826 16.1003 11.7574 14.9751C10.6321 13.8498 10 12.3237 10 10.7324C10 9.14112 10.6321 7.615 11.7574 6.48978C12.8826 5.36456 14.4087 4.73242 16 4.73242C17.5913 4.73242 19.1174 5.36456 20.2426 6.48978C21.3679 7.615 22 9.14112 22 10.7324ZM4 26.7324C4 28.7324 6 28.7324 6 28.7324H16.512C16.1723 27.7687 15.9991 26.7542 16 25.7324C16 24.4463 16.2756 23.1752 16.8083 22.0046C17.3409 20.834 18.1183 19.7912 19.088 18.9464C18.1547 18.8064 17.1253 18.7351 16 18.7324C6 18.7324 4 24.7324 4 26.7324ZM23.772 19.6524C24.132 18.4264 25.868 18.4264 26.23 19.6524L26.316 19.9484C26.3697 20.132 26.4639 20.3013 26.5916 20.4437C26.7194 20.5861 26.8774 20.6981 27.0541 20.7714C27.2308 20.8447 27.4217 20.8774 27.6127 20.8672C27.8038 20.857 27.9901 20.8041 28.158 20.7124L28.43 20.5644C29.552 19.9524 30.78 21.1804 30.17 22.3024L30.02 22.5744C29.9287 22.7422 29.8761 22.9284 29.8661 23.1192C29.8561 23.31 29.8889 23.5006 29.9622 23.677C30.0355 23.8535 30.1473 24.0113 30.2895 24.1389C30.4317 24.2665 30.6007 24.3606 30.784 24.4144L31.082 24.5044C32.306 24.8644 32.306 26.6004 31.082 26.9624L30.782 27.0484C30.5987 27.1026 30.4299 27.1971 30.288 27.325C30.146 27.453 30.0345 27.6111 29.9616 27.7877C29.8887 27.9644 29.8563 28.1551 29.8668 28.3459C29.8772 28.5367 29.9303 28.7228 30.022 28.8904L30.17 29.1624C30.78 30.2844 29.552 31.5124 28.43 30.9024L28.158 30.7524C27.9902 30.6611 27.804 30.6085 27.6132 30.5985C27.4224 30.5885 27.2318 30.6214 27.0554 30.6946C26.8789 30.7679 26.7211 30.8797 26.5935 31.0219C26.4659 31.1641 26.3718 31.3331 26.318 31.5164L26.228 31.8144C25.868 33.0384 24.132 33.0384 23.77 31.8144L23.684 31.5144C23.6298 31.3312 23.5353 31.1624 23.4074 31.0204C23.2795 30.8784 23.1214 30.7669 22.9447 30.694C22.7681 30.6211 22.5773 30.5887 22.3865 30.5992C22.1957 30.6096 22.0096 30.6627 21.842 30.7544L21.57 30.9024C20.448 31.5124 19.22 30.2844 19.83 29.1624L19.98 28.8904C20.0713 28.7226 20.1239 28.5365 20.1339 28.3457C20.1439 28.1549 20.1111 27.9643 20.0378 27.7878C19.9645 27.6114 19.8527 27.4535 19.7105 27.3259C19.5683 27.1984 19.3993 27.1042 19.216 27.0504L18.92 26.9604C17.694 26.6004 17.694 24.8644 18.92 24.5024L19.216 24.4164C19.3996 24.3627 19.5688 24.2685 19.7113 24.1408C19.8537 24.013 19.9656 23.855 20.0389 23.6783C20.1122 23.5016 20.145 23.3107 20.1348 23.1197C20.1246 22.9286 20.0717 22.7423 19.98 22.5744L19.832 22.3024C19.22 21.1804 20.448 19.9524 21.57 20.5624L21.842 20.7124C22.0098 20.8037 22.196 20.8563 22.3868 20.8663C22.5776 20.8763 22.7682 20.8435 22.9446 20.7702C23.1211 20.697 23.2789 20.5851 23.4065 20.4429C23.5341 20.3007 23.6282 20.1318 23.682 19.9484L23.772 19.6524ZM28 25.7324C28 25.3385 27.9224 24.9483 27.7716 24.5844C27.6209 24.2204 27.3999 23.8897 27.1213 23.6111C26.8427 23.3325 26.512 23.1115 26.1481 22.9608C25.7841 22.81 25.394 22.7324 25 22.7324C24.606 22.7324 24.2159 22.81 23.8519 22.9608C23.488 23.1115 23.1573 23.3325 22.8787 23.6111C22.6001 23.8897 22.3791 24.2204 22.2284 24.5844C22.0776 24.9483 22 25.3385 22 25.7324C22 26.5281 22.3161 27.2911 22.8787 27.8537C23.4413 28.4164 24.2044 28.7324 25 28.7324C25.7956 28.7324 26.5587 28.4164 27.1213 27.8537C27.6839 27.2911 28 26.5281 28 25.7324Z" fill="#FD735E"/>
        </g>
        <defs>
        <clipPath id="clip0_28_333">
        <rect width="32" height="32" fill="white" transform="translate(0 0.732422)"/>
        </clipPath>
        </defs>
    </symbol>
    <!-- Расширенная гарантия -->
    <symbol id="extended-warranty" viewBox="0 0 32 33">
        <g clip-path="url(#clip0_28_339)">
        <path fill-rule="evenodd" clip-rule="evenodd" d="M16 0.732422C14.62 0.732422 12.314 1.26242 10.144 1.85242C7.92401 2.45242 5.68601 3.16242 4.37001 3.59242C3.81979 3.77412 3.33199 4.10735 2.96264 4.55382C2.5933 5.0003 2.35739 5.5419 2.28201 6.11642C1.09001 15.0704 3.85601 21.7064 7.21201 26.0964C8.6357 27.9739 10.3325 29.6276 12.246 31.0024C13.018 31.5484 13.734 31.9664 14.342 32.2524C14.902 32.5164 15.504 32.7324 16 32.7324C16.496 32.7324 17.096 32.5164 17.658 32.2524C18.3917 31.8976 19.0931 31.4793 19.754 31.0024C21.6675 29.6276 23.3643 27.9739 24.788 26.0964C28.144 21.7064 30.91 15.0704 29.718 6.11642C29.643 5.54154 29.4072 4.99951 29.0379 4.55266C28.6685 4.1058 28.1805 3.77227 27.63 3.59042C25.7195 2.96444 23.7943 2.38427 21.856 1.85042C19.686 1.26442 17.38 0.732422 16 0.732422ZM20.292 11.0244C20.4798 10.8366 20.7345 10.7312 21 10.7312C21.2656 10.7312 21.5202 10.8366 21.708 11.0244C21.8958 11.2122 22.0013 11.4669 22.0013 11.7324C22.0013 11.998 21.8958 12.2526 21.708 12.4404L15.708 18.4404C15.6151 18.5335 15.5048 18.6074 15.3833 18.6578C15.2618 18.7083 15.1315 18.7342 15 18.7342C14.8685 18.7342 14.7382 18.7083 14.6167 18.6578C14.4953 18.6074 14.3849 18.5335 14.292 18.4404L11.292 15.4404C11.199 15.3474 11.1253 15.2371 11.075 15.1156C11.0246 14.9941 10.9987 14.8639 10.9987 14.7324C10.9987 14.6009 11.0246 14.4707 11.075 14.3493C11.1253 14.2278 11.199 14.1174 11.292 14.0244C11.385 13.9314 11.4954 13.8577 11.6168 13.8074C11.7383 13.7571 11.8685 13.7312 12 13.7312C12.1315 13.7312 12.2617 13.7571 12.3832 13.8074C12.5047 13.8577 12.615 13.9314 12.708 14.0244L15 16.3184L20.292 11.0244Z" fill="#75E6A4"/>
        </g>
        <defs>
        <clipPath id="clip0_28_339">
        <rect width="32" height="32" fill="white" transform="translate(0 0.732422)"/>
        </clipPath>
        </defs>
    </symbol>
        <!-- Обучение -->
    <symbol id="education" viewBox="0 0 32 33">
        <g clip-path="url(#clip0_28_366)">
        <path d="M16.422 4.82583C16.2898 4.7643 16.1458 4.73242 16 4.73242C15.8542 4.73242 15.7102 4.7643 15.578 4.82583L0.578022 11.8258C0.401386 11.9083 0.252698 12.0405 0.150244 12.2064C0.0477893 12.3722 -0.00396424 12.5644 0.00134811 12.7592C0.00666045 12.9541 0.068807 13.1431 0.180145 13.3031C0.291482 13.4632 0.447157 13.5871 0.628022 13.6598L15.628 19.6598C15.8668 19.7555 16.1333 19.7555 16.372 19.6598L28 15.0118V26.7318C27.4696 26.7318 26.9609 26.9425 26.5858 27.3176C26.2107 27.6927 26 28.2014 26 28.7318V32.7318H32V28.7318C32 28.2014 31.7893 27.6927 31.4142 27.3176C31.0392 26.9425 30.5305 26.7318 30 26.7318V14.2098L31.372 13.6598C31.5529 13.5871 31.7086 13.4632 31.8199 13.3031C31.9312 13.1431 31.9934 12.9541 31.9987 12.7592C32.004 12.5644 31.9523 12.3722 31.8498 12.2064C31.7473 12.0405 31.5987 11.9083 31.422 11.8258L16.422 4.82583Z" fill="#242424"/>
        <path d="M8.35198 18.7966C8.22321 18.7481 8.08581 18.7267 7.94839 18.7337C7.81097 18.7408 7.67648 18.7761 7.55333 18.8374C7.43018 18.8988 7.32102 18.985 7.23269 19.0905C7.14436 19.196 7.07875 19.3186 7.03998 19.4506L6.03998 22.8506C5.96993 23.0893 5.99136 23.3455 6.10009 23.5693C6.20881 23.793 6.39703 23.9682 6.62798 24.0606L15.628 27.6606C15.8667 27.7563 16.1332 27.7563 16.372 27.6606L25.372 24.0606C25.6029 23.9682 25.7911 23.793 25.8999 23.5693C26.0086 23.3455 26.03 23.0893 25.96 22.8506L24.96 19.4506C24.9212 19.3186 24.8556 19.196 24.7673 19.0905C24.6789 18.985 24.5698 18.8988 24.4466 18.8374C24.3235 18.7761 24.189 18.7408 24.0516 18.7337C23.9141 18.7267 23.7767 18.7481 23.648 18.7966L16 21.6646L8.35198 18.7966Z" fill="#242424"/>
        </g>
        <defs>
        <clipPath id="clip0_28_366">
        <rect width="32" height="32" fill="white" transform="translate(0 0.732422)"/>
        </clipPath>
        </defs>
    </symbol>
        <!-- Сервис -->
    <symbol id="service" viewBox="0 0 32 33">
        <g clip-path="url(#clip0_28_697)">
        <path d="M32 9.73172C32.0003 11.0878 31.694 12.4265 31.1043 13.6476C30.5145 14.8687 29.6563 15.9408 28.594 16.7837L26 10.7317L31.918 8.51172C31.9713 8.91172 31.9987 9.31839 32 9.73172Z" fill="#484BF2"/>
        <path d="M23 18.7324C24.306 18.7324 25.546 18.4544 26.666 17.9524L24 11.7324L22 6.73241L29.652 3.67241C28.2419 2.12406 26.3359 1.11594 24.2624 0.821709C22.189 0.527475 20.0778 0.965546 18.2926 2.06046C16.5073 3.15538 15.1598 4.83859 14.4822 6.82016C13.8045 8.80173 13.8391 10.9576 14.58 12.9164L2.34798 23.1084C1.79674 23.568 1.34731 24.1375 1.02836 24.7804C0.709411 25.4234 0.527938 26.1258 0.49551 26.8428C0.463083 27.5597 0.580413 28.2756 0.84002 28.9447C1.09963 29.6139 1.49581 30.2216 2.00332 30.7291C2.51083 31.2366 3.11852 31.6328 3.78764 31.8924C4.45677 32.152 5.17265 32.2693 5.88964 32.2369C6.60663 32.2045 7.309 32.023 7.95196 31.704C8.59492 31.3851 9.16436 30.9357 9.62398 30.3844L19.816 18.1524C20.8335 18.5365 21.9123 18.7331 23 18.7324ZM20.416 10.0104L19.224 11.7964L20.842 11.2564C20.9411 11.2229 21.0483 11.2214 21.1484 11.2521C21.2484 11.2827 21.3364 11.344 21.3998 11.4273C21.4631 11.5105 21.4988 11.6116 21.5017 11.7162C21.5046 11.8208 21.4746 11.9237 21.416 12.0104L20.224 13.7964L21.842 13.2564L22.158 14.2064L19.158 15.2064C19.0591 15.2394 18.9524 15.2406 18.8528 15.21C18.7531 15.1793 18.6656 15.1183 18.6023 15.0355C18.5391 14.9526 18.5033 14.8521 18.5 14.7479C18.4967 14.6437 18.5261 14.5411 18.584 14.4544L19.776 12.6684L18.158 13.2084C18.0588 13.2419 17.9517 13.2434 17.8516 13.2127C17.7515 13.1821 17.6636 13.1208 17.6002 13.0375C17.5368 12.9543 17.5012 12.8532 17.4982 12.7486C17.4953 12.644 17.5253 12.5411 17.584 12.4544L18.776 10.6684L17.158 11.2084L16.842 10.2584L19.842 9.25841C19.9409 9.22543 20.0476 9.22418 20.1472 9.25482C20.2468 9.28547 20.3344 9.34649 20.3976 9.42935C20.4609 9.51221 20.4966 9.61275 20.4999 9.71694C20.5032 9.82112 20.4739 9.92373 20.416 10.0104ZM5.99998 28.7324C5.46955 28.7324 4.96084 28.5217 4.58577 28.1466C4.2107 27.7715 3.99998 27.2628 3.99998 26.7324C3.99998 26.202 4.2107 25.6933 4.58577 25.3182C4.96084 24.9431 5.46955 24.7324 5.99998 24.7324C6.53042 24.7324 7.03912 24.9431 7.4142 25.3182C7.78927 25.6933 7.99998 26.202 7.99998 26.7324C7.99998 27.2628 7.78927 27.7715 7.4142 28.1466C7.03912 28.5217 6.53042 28.7324 5.99998 28.7324Z" fill="#484BF2"/>
        </g>
        <defs>
        <clipPath id="clip0_28_697">
        <rect width="32" height="32" fill="white" transform="translate(0 0.732422)"/>
        </clipPath>
        </defs>
    </symbol>
        <!-- Акции -->
    <symbol id="stock" viewBox="0 0 32 33">
        <g clip-path="url(#clip0_34_1033)">
        <path d="M11.0401 1.45042C11.101 1.24308 11.2275 1.06106 11.4006 0.931622C11.5736 0.802184 11.784 0.732296 12.0001 0.732422H20.0001C20.1585 0.732542 20.3145 0.770274 20.4555 0.842511C20.5964 0.914747 20.7182 1.01942 20.8107 1.14792C20.9033 1.27642 20.964 1.42507 20.9879 1.58162C21.0118 1.73818 20.9981 1.89817 20.9481 2.04842L17.3881 12.7324H25.0001C25.1874 12.7323 25.3709 12.7847 25.5298 12.8838C25.6887 12.9829 25.8166 13.1246 25.899 13.2928C25.9813 13.461 26.0147 13.6489 25.9955 13.8352C25.9762 14.0215 25.9051 14.1986 25.7901 14.3464L11.7901 32.3464C11.6467 32.5317 11.4427 32.6608 11.2139 32.711C10.985 32.7613 10.7458 32.7296 10.5379 32.6215C10.3301 32.5134 10.1667 32.3357 10.0765 32.1195C9.98623 31.9033 9.97476 31.6622 10.0441 31.4384L13.6461 19.7324H7.0001C6.84463 19.7325 6.69128 19.6964 6.55222 19.6268C6.41317 19.5573 6.29225 19.4563 6.19906 19.3318C6.10587 19.2074 6.04298 19.0629 6.01539 18.9099C5.98779 18.7569 5.99625 18.5996 6.0401 18.4504L11.0401 1.45042Z" fill="#FA9739"/>
        </g>
        <defs>
        <clipPath id="clip0_34_1033">
        <rect width="32" height="32" fill="white" transform="translate(0 0.732422)"/>
        </clipPath>
        </defs>
    </symbol>
        <!-- Гостевые пароли -->
    <symbol id="guest-passwords" viewBox="0 0 32 33">
        <g clip-path="url(#clip0_28_730)">
        <path d="M22 10.7324C22 12.3237 21.3679 13.8498 20.2426 14.9751C19.1174 16.1003 17.5913 16.7324 16 16.7324C14.4087 16.7324 12.8826 16.1003 11.7574 14.9751C10.6321 13.8498 10 12.3237 10 10.7324C10 9.14112 10.6321 7.615 11.7574 6.48978C12.8826 5.36456 14.4087 4.73242 16 4.73242C17.5913 4.73242 19.1174 5.36456 20.2426 6.48978C21.3679 7.615 22 9.14112 22 10.7324ZM4 26.7324C4 28.7324 6 28.7324 6 28.7324H16V26.7324C16 26.5988 16.0067 26.4653 16.02 26.3324C15.9259 24.948 16.154 23.5605 16.6863 22.279C17.2186 20.9975 18.0407 19.8568 19.088 18.9464C18.1547 18.8064 17.1253 18.7351 16 18.7324C6 18.7324 4 24.7324 4 26.7324ZM18 26.7324C18 26.202 18.2107 25.6933 18.5858 25.3182C18.9609 24.9431 19.4696 24.7324 20 24.7324V22.7324C20 21.6716 20.4214 20.6541 21.1716 19.904C21.9217 19.1538 22.9391 18.7324 24 18.7324C25.0609 18.7324 26.0783 19.1538 26.8284 19.904C27.5786 20.6541 28 21.6716 28 22.7324V24.7324C28.5304 24.7324 29.0391 24.9431 29.4142 25.3182C29.7893 25.6933 30 26.202 30 26.7324V30.7324C30 31.2629 29.7893 31.7716 29.4142 32.1466C29.0391 32.5217 28.5304 32.7324 28 32.7324H20C19.4696 32.7324 18.9609 32.5217 18.5858 32.1466C18.2107 31.7716 18 31.2629 18 30.7324V26.7324ZM24 20.7324C23.4696 20.7324 22.9609 20.9431 22.5858 21.3182C22.2107 21.6933 22 22.202 22 22.7324V24.7324H26V22.7324C26 22.202 25.7893 21.6933 25.4142 21.3182C25.0391 20.9431 24.5304 20.7324 24 20.7324Z" fill="#64A5FF"/>
        </g>
        <defs>
        <clipPath id="clip0_28_730">
        <rect width="32" height="32" fill="white" transform="translate(0 0.732422)"/>
        </clipPath>
        </defs>
    </symbol>
        <!-- Документы -->
    <symbol id="documentation" viewBox="0 0 32 33">
        <g clip-path="url(#clip0_34_1039)">
        <path d="M9.95982 2.73242C9.80993 2.73264 9.66202 2.76654 9.52701 2.83162C9.392 2.8967 9.27334 2.9913 9.17982 3.10842L3.07981 10.7324H11.9998C12.265 10.7324 12.5194 10.8378 12.7069 11.0253C12.8945 11.2129 12.9998 11.4672 12.9998 11.7324C12.9998 12.5281 13.3159 13.2911 13.8785 13.8537C14.4411 14.4164 15.2042 14.7324 15.9998 14.7324C16.7955 14.7324 17.5585 14.4164 18.1211 13.8537C18.6837 13.2911 18.9998 12.5281 18.9998 11.7324C18.9998 11.4672 19.1052 11.2129 19.2927 11.0253C19.4802 10.8378 19.7346 10.7324 19.9998 10.7324H28.9198L22.8198 3.10842C22.7263 2.9913 22.6076 2.8967 22.4726 2.83162C22.3376 2.76654 22.1897 2.73264 22.0398 2.73242H9.95982ZM7.61981 1.85842C7.90059 1.50743 8.25664 1.22401 8.66167 1.02911C9.06669 0.834218 9.51034 0.732823 9.95982 0.732422L22.0398 0.732422C22.4893 0.732823 22.9329 0.834218 23.338 1.02911C23.743 1.22401 24.099 1.50743 24.3798 1.85842L31.7798 11.1084C31.8633 11.2126 31.9251 11.3325 31.9615 11.461C31.9979 11.5894 32.0082 11.7239 31.9918 11.8564L31.2118 18.1044C31.1211 18.8302 30.7684 19.4978 30.22 19.9818C29.6716 20.4658 28.9652 20.7327 28.2338 20.7324H3.76581C3.03439 20.7327 2.32806 20.4658 1.77965 19.9818C1.23123 19.4978 0.878511 18.8302 0.787815 18.1044L0.0078147 11.8564C-0.00857781 11.7239 0.00173554 11.5894 0.0381463 11.461C0.0745571 11.3325 0.136328 11.2126 0.219815 11.1084L7.61981 1.85842ZM0.249815 23.0724C0.343525 22.9658 0.458876 22.8803 0.588193 22.8216C0.717511 22.763 0.85783 22.7326 0.999815 22.7324H11.9998C12.265 22.7324 12.5194 22.8378 12.7069 23.0253C12.8945 23.2129 12.9998 23.4672 12.9998 23.7324C12.9998 24.5281 13.3159 25.2911 13.8785 25.8537C14.4411 26.4164 15.2042 26.7324 15.9998 26.7324C16.7955 26.7324 17.5585 26.4164 18.1211 25.8537C18.6837 25.2911 18.9998 24.5281 18.9998 23.7324C18.9998 23.4672 19.1052 23.2129 19.2927 23.0253C19.4802 22.8378 19.7346 22.7324 19.9998 22.7324H30.9998C31.1416 22.7325 31.2817 22.7626 31.4109 22.821C31.5401 22.8793 31.6555 22.9644 31.7493 23.0707C31.8431 23.177 31.9132 23.302 31.955 23.4375C31.9969 23.5729 32.0094 23.7157 31.9918 23.8564L31.2118 30.1044C31.1211 30.8302 30.7684 31.4978 30.22 31.9818C29.6716 32.4658 28.9652 32.7327 28.2338 32.7324H3.76581C3.03439 32.7327 2.32806 32.4658 1.77965 31.9818C1.23123 31.4978 0.878511 30.8302 0.787815 30.1044L0.0078147 23.8564C-0.00987674 23.7157 0.00255112 23.5729 0.0442737 23.4374C0.0859962 23.3019 0.15606 23.1768 0.249815 23.0704V23.0724Z" fill="#303030"/>
        </g>
        <defs>
        <clipPath id="clip0_34_1039">
        <rect width="32" height="32" fill="white" transform="translate(0 0.732422)"/>
        </clipPath>
        </defs>
    </symbol>
        <!-- ФССП -->
    <symbol id="fssp" viewBox="0 0 32 33">
        <path fill-rule="evenodd" clip-rule="evenodd" d="M9.472 4.66758L7.688 11.2056L7.66 11.3216C4.226 11.8676 2 12.7436 2 13.7316C2 15.3876 8.268 16.7316 16 16.7316C23.732 16.7316 30 15.3876 30 13.7316C30 12.7436 27.774 11.8676 24.34 11.3216L24.312 11.2056L22.528 4.66558C22.236 3.59958 21.132 2.96758 20.05 3.19758C18.822 3.45758 17.24 3.73158 16 3.73158C14.76 3.73158 13.178 3.45958 11.95 3.19758C10.868 2.96758 9.764 3.59758 9.472 4.66758ZM9.502 12.4016C9.5085 12.3362 9.52784 12.2727 9.55892 12.2147C9.58999 12.1568 9.63218 12.1055 9.68308 12.0639C9.73398 12.0223 9.79259 11.9911 9.85555 11.9722C9.91851 11.9533 9.98459 11.9469 10.05 11.9536C11.85 12.1376 13.87 12.2396 16 12.2396C17.9868 12.2428 19.9726 12.1474 21.95 11.9536C22.0821 11.9403 22.214 11.9801 22.3168 12.0641C22.4196 12.1481 22.4847 12.2695 22.498 12.4016C22.5113 12.5337 22.4715 12.6656 22.3875 12.7684C22.3035 12.8711 22.1821 12.9363 22.05 12.9496C20.214 13.1356 18.162 13.2396 16 13.2396C13.838 13.2396 11.786 13.1356 9.95 12.9496C9.88458 12.9431 9.82108 12.9237 9.76314 12.8927C9.7052 12.8616 9.65396 12.8194 9.61234 12.7685C9.57073 12.7176 9.53957 12.659 9.52063 12.596C9.5017 12.5331 9.49537 12.467 9.502 12.4016ZM4 21.7316C4.00133 21.3796 4.058 21.0462 4.17 20.7316H4C3.73478 20.7316 3.48043 20.6262 3.29289 20.4387C3.10536 20.2512 3 19.9968 3 19.7316C3 19.4664 3.10536 19.212 3.29289 19.0245C3.48043 18.8369 3.73478 18.7316 4 18.7316H11C11.7305 18.7317 12.4358 18.9983 12.9837 19.4814C13.5316 19.9645 13.8844 20.6309 13.976 21.3556C15.2959 20.9569 16.7041 20.9569 18.024 21.3556C18.1156 20.6309 18.4684 19.9645 19.0163 19.4814C19.5642 18.9983 20.2695 18.7317 21 18.7316H28C28.2652 18.7316 28.5196 18.8369 28.7071 19.0245C28.8946 19.212 29 19.4664 29 19.7316C29 19.9968 28.8946 20.2512 28.7071 20.4387C28.5196 20.6262 28.2652 20.7316 28 20.7316H27.83C27.942 21.0462 27.9987 21.3796 28 21.7316V23.7316C28 25.0577 27.4732 26.3294 26.5355 27.2671C25.5979 28.2048 24.3261 28.7316 23 28.7316C21.6739 28.7316 20.4021 28.2048 19.4645 27.2671C18.5268 26.3294 18 25.0577 18 23.7316V23.4516L17.58 23.3116C16.5544 22.97 15.4456 22.97 14.42 23.3116L14 23.4516V23.7316C14 25.0577 13.4732 26.3294 12.5355 27.2671C11.5979 28.2048 10.3261 28.7316 9 28.7316C7.67392 28.7316 6.40215 28.2048 5.46447 27.2671C4.52678 26.3294 4 25.0577 4 23.7316V21.7316Z" fill="#303030"/>
    </symbol>
        <!-- Отчетность -->
    <symbol id="reporting" viewBox="0 0 32 33">
        <g clip-path="url(#clip0_34_966)">
        <path d="M20 1.73242C20 1.46721 19.8946 1.21285 19.7071 1.02532C19.5196 0.837779 19.2652 0.732422 19 0.732422H13C12.7348 0.732422 12.4804 0.837779 12.2929 1.02532C12.1054 1.21285 12 1.46721 12 1.73242C12 1.99764 11.8946 2.25199 11.7071 2.43953C11.5196 2.62707 11.2652 2.73242 11 2.73242C10.7348 2.73242 10.4804 2.83778 10.2929 3.02532C10.1054 3.21285 10 3.46721 10 3.73242V4.73242C10 4.99764 10.1054 5.25199 10.2929 5.43953C10.4804 5.62706 10.7348 5.73242 11 5.73242H21C21.2652 5.73242 21.5196 5.62706 21.7071 5.43953C21.8946 5.25199 22 4.99764 22 4.73242V3.73242C22 3.46721 21.8946 3.21285 21.7071 3.02532C21.5196 2.83778 21.2652 2.73242 21 2.73242C20.7348 2.73242 20.4804 2.62707 20.2929 2.43953C20.1054 2.25199 20 1.99764 20 1.73242Z" fill="#EE9949"/>
        <path d="M8.17 2.73242H7C6.20435 2.73242 5.44129 3.04849 4.87868 3.6111C4.31607 4.17371 4 4.93677 4 5.73242V29.7324C4 30.5281 4.31607 31.2911 4.87868 31.8537C5.44129 32.4164 6.20435 32.7324 7 32.7324H25C25.7956 32.7324 26.5587 32.4164 27.1213 31.8537C27.6839 31.2911 28 30.5281 28 29.7324V5.73242C28 4.93677 27.6839 4.17371 27.1213 3.6111C26.5587 3.04849 25.7956 2.73242 25 2.73242H23.83C23.942 3.04709 23.9987 3.38042 24 3.73242V4.73242C24 5.52807 23.6839 6.29113 23.1213 6.85374C22.5587 7.41635 21.7956 7.73242 21 7.73242H11C10.2044 7.73242 9.44129 7.41635 8.87868 6.85374C8.31607 6.29113 8 5.52807 8 4.73242V3.73242C8.00133 3.38042 8.058 3.04709 8.17 2.73242ZM19.96 11.4444L22.744 20.7324H23C23.2652 20.7324 23.5196 20.8378 23.7071 21.0253C23.8946 21.2129 24 21.4672 24 21.7324C24 21.9976 23.8946 22.252 23.7071 22.4395C23.5196 22.6271 23.2652 22.7324 23 22.7324H22C21.785 22.7325 21.5757 22.6633 21.4031 22.535C21.2306 22.4068 21.1039 22.2263 21.042 22.0204L19.162 15.7504L16.978 25.9424C16.9317 26.1596 16.8143 26.3552 16.6446 26.4983C16.4748 26.6414 16.2622 26.724 16.0403 26.7329C15.8184 26.7418 15.5998 26.6767 15.4191 26.5477C15.2383 26.4187 15.1057 26.2332 15.042 26.0204L12.766 18.4324L10.894 22.1784C10.8111 22.3447 10.6836 22.4846 10.5257 22.5824C10.3678 22.6803 10.1858 22.7322 10 22.7324H9C8.73478 22.7324 8.48043 22.6271 8.29289 22.4395C8.10536 22.252 8 21.9976 8 21.7324C8 21.4672 8.10536 21.2129 8.29289 21.0253C8.48043 20.8378 8.73478 20.7324 9 20.7324H9.382L12.106 15.2844C12.1957 15.1053 12.337 14.9572 12.5118 14.8594C12.6866 14.7616 12.8868 14.7185 13.0863 14.7357C13.2859 14.753 13.4757 14.8297 13.6311 14.9561C13.7865 15.0825 13.9004 15.2526 13.958 15.4444L15.838 21.7144L18.022 11.5224C18.0683 11.3052 18.1857 11.1097 18.3554 10.9665C18.5252 10.8234 18.7378 10.7409 18.9597 10.7319C19.1816 10.723 19.4002 10.7882 19.5809 10.9172C19.7617 11.0462 19.8963 11.2317 19.96 11.4444Z" fill="#EE9949"/>
        </g>
        <defs>
        <clipPath id="clip0_34_966">
        <rect width="32" height="32" fill="white" transform="translate(0 0.732422)"/>
        </clipPath>
        </defs>
    </symbol>
        <!-- Самозанятые-тарифы -->
    <symbol id="self-employed-tariffs" viewBox="0 0 32 33">
        <g clip-path="url(#clip0_34_1051)">
        <path d="M8 32.732C8 32.732 6 32.732 6 30.732C6 28.732 8 22.732 16 22.732C24 22.732 26 28.732 26 30.732C26 32.732 24 32.732 24 32.732H8ZM16 20.832C17.3261 20.832 18.5979 20.3052 19.5355 19.3676C20.4732 18.4299 21 17.1581 21 15.832C21 14.5059 20.4732 13.2342 19.5355 12.2965C18.5979 11.3588 17.3261 10.832 16 10.832C14.6739 10.832 13.4021 11.3588 12.4645 12.2965C11.5268 13.2342 11 14.5059 11 15.832C11 17.1581 11.5268 18.4299 12.4645 19.3676C13.4021 20.3052 14.6739 20.832 16 20.832Z" fill="#FA6060"/>
        <path d="M4 2.73242C2.93913 2.73242 1.92172 3.15385 1.17157 3.90399C0.421427 4.65414 0 5.67156 0 6.73242L0 25.7324C0 26.5281 0.31607 27.2911 0.87868 27.8537C1.44129 28.4164 2.20435 28.7324 3 28.7324H4.306C4.72572 27.2633 5.45239 25.8999 6.438 24.7324H2V6.73242C2 6.20199 2.21071 5.69328 2.58579 5.31821C2.96086 4.94314 3.46957 4.73242 4 4.73242H28C28.5304 4.73242 29.0391 4.94314 29.4142 5.31821C29.7893 5.69328 30 6.20199 30 6.73242V24.7324H25.562C26.67 26.0404 27.342 27.4784 27.694 28.7324H29C29.7956 28.7324 30.5587 28.4164 31.1213 27.8537C31.6839 27.2911 32 26.5281 32 25.7324V6.73242C32 5.67156 31.5786 4.65414 30.8284 3.90399C30.0783 3.15385 29.0609 2.73242 28 2.73242H4Z" fill="#FA6060"/>
        </g>
        <defs>
        <clipPath id="clip0_34_1051">
        <rect width="32" height="32" fill="white" transform="translate(0 0.732422)"/>
        </clipPath>
        </defs>
    </symbol>
        <!-- Ключевые показатели -->
    <symbol id="key-indicators" viewBox="0 0 32 33">
        <g clip-path="url(#clip0_34_1058)">
        <path d="M24.3398 19.7926C28.9538 14.6086 30.8958 10.4246 31.6218 7.35665C32.0418 5.58265 32.0498 4.19665 31.9418 3.22665C31.8999 2.84617 31.8276 2.46964 31.7258 2.10065C31.6832 1.9443 31.6311 1.79068 31.5698 1.64065C31.4238 1.31265 31.2338 1.17065 30.8658 1.04865C30.7605 1.01423 30.6537 0.984202 30.5458 0.958649C30.1708 0.869261 29.7898 0.807099 29.4058 0.772649C28.4258 0.684649 27.0258 0.712649 25.2458 1.14865C22.1738 1.89665 18.0098 3.83465 12.9238 8.35665L8.12383 8.83265H8.11183C6.95839 8.96093 5.88321 9.47877 5.06383 10.3006L0.299827 15.0726C0.148937 15.2246 0.0494819 15.42 0.0154534 15.6315C-0.0185751 15.8429 0.0145354 16.0597 0.110127 16.2513C0.205719 16.4429 0.358981 16.5997 0.548353 16.6997C0.737725 16.7997 0.953676 16.8378 1.16583 16.8086L4.95783 16.2666C5.51783 16.1866 6.14183 16.2926 6.86783 16.5306C7.33183 16.6826 7.74183 16.8506 8.17783 17.0266L8.58383 17.1926C8.97583 18.8246 9.90383 20.3526 11.1338 21.5826C12.3598 22.8106 13.8858 23.7426 15.5158 24.1366L15.6798 24.5406C15.8578 24.9767 16.0258 25.3886 16.1778 25.8546C16.4138 26.5806 16.5218 27.2066 16.4418 27.7666L15.8998 31.5666C15.8712 31.7784 15.9096 31.9938 16.0095 32.1826C16.1094 32.3715 16.2659 32.5244 16.4571 32.6199C16.6482 32.7153 16.8645 32.7486 17.0755 32.715C17.2865 32.6815 17.4817 32.5827 17.6338 32.4326L22.3978 27.6606C23.2178 26.8406 23.7338 25.7626 23.8618 24.6086L24.3398 19.7926ZM24.5598 12.3946C22.9658 13.9946 20.6998 14.3166 19.5038 13.1186C18.3078 11.9186 18.6318 9.65265 20.2258 8.05465C21.8218 6.45665 24.0858 6.13465 25.2818 7.33265C26.4778 8.53065 26.1558 10.7966 24.5618 12.3946H24.5598Z" fill="#43B171"/>
        <path d="M10.4102 22.307C11.4718 23.3827 12.6878 24.2941 14.0182 25.011C11.7822 27.025 4.16022 29.067 3.91022 28.817C3.65822 28.563 5.38422 20.439 7.58822 18.457C8.28022 19.837 9.26222 21.157 10.4102 22.307Z" fill="#43B171"/>
        </g>
        <defs>
        <clipPath id="clip0_34_1058">
        <rect width="32" height="32" fill="white" transform="translate(0 0.732422)"/>
        </clipPath>
        </defs>
    </symbol>
        <!-- ОРД Яндекса -->
    <symbol id="yandex" viewBox="0 0 32 33">
        <path d="M26.2747 32.7324H20.6835V5.0577H18.1868C13.6154 5.0577 11.2242 7.34341 11.2242 10.7544C11.2242 14.6225 12.8769 16.4159 16.2879 18.7017L19.1011 20.6006L11.0132 32.7324H5L12.2791 21.9017C8.09451 18.9126 5.73846 15.994 5.73846 11.0709C5.73846 4.91704 10.0286 0.732422 18.1516 0.732422H26.2396V32.7324H26.2747Z" fill="#FC3F1D"/>
    </symbol>
        <!-- Переговорки -->
    <symbol id="negotiations" viewBox="0 0 32 33">
        <g clip-path="url(#clip0_34_952)">
        <path fill-rule="evenodd" clip-rule="evenodd" d="M1.00009 12C0.850462 12.0001 0.702749 12.0337 0.567845 12.0984C0.43294 12.1632 0.314284 12.2574 0.220622 12.3741C0.126959 12.4907 0.0606787 12.627 0.0266657 12.7727C-0.00734739 12.9184 -0.00822589 13.0699 0.0240949 13.216L3.32809 28.084C3.57472 29.1945 4.19264 30.1877 5.07986 30.8997C5.96707 31.6116 7.07054 31.9998 8.2081 32H19.7921C20.9297 31.9998 22.0331 31.6116 22.9203 30.8997C23.8076 30.1877 24.4255 29.1945 24.6721 28.084L24.9341 26.904C26.4639 27.1901 28.0451 26.8706 29.3438 26.0129C30.6425 25.1552 31.5571 23.8264 31.8945 22.307C32.2319 20.7876 31.9657 19.1966 31.1521 17.8698C30.3386 16.543 29.0413 15.5843 27.5341 15.196L27.9761 13.216C28.0084 13.0699 28.0075 12.9184 27.9735 12.7727C27.9395 12.627 27.8732 12.4907 27.7796 12.3741C27.6859 12.2574 27.5673 12.1632 27.4323 12.0984C27.2974 12.0337 27.1497 12.0001 27.0001 12H1.00009ZM26.0001 25C25.7884 25.0001 25.5771 24.9834 25.3681 24.95L27.1021 17.154C28.0271 17.4219 28.8245 18.0144 29.3479 18.8227C29.8714 19.631 30.0858 20.601 29.9518 21.5546C29.8179 22.5083 29.3446 23.3817 28.6187 24.0145C27.8928 24.6474 26.9631 24.9973 26.0001 25Z" fill="#EE9949"/>
        <path d="M8.8 1.59921L8.794 1.60721L8.766 1.64521C8.62048 1.84545 8.48433 2.05234 8.358 2.26521C8.25068 2.43585 8.15641 2.61435 8.076 2.79921C8.024 2.9192 8.008 2.98321 8.002 3.00521V3.01321C8.02506 3.19001 8.08724 3.35945 8.184 3.50921C8.334 3.77521 8.54 4.05321 8.8 4.39921L8.82 4.4232C9.056 4.7392 9.34 5.11721 9.56 5.50921C9.784 5.90921 10 6.41921 10 6.99921C10 7.37521 9.87 7.73521 9.762 7.98721C9.6464 8.25536 9.51137 8.51471 9.358 8.7632C9.2011 9.02547 9.03225 9.2804 8.852 9.5272L8.816 9.5772L8.806 9.5932L8.802 9.5972C8.64314 9.80964 8.40639 9.95027 8.14384 9.98815C7.88129 10.026 7.61444 9.95807 7.402 9.7992C7.18956 9.64034 7.04893 9.40359 7.01105 9.14104C6.97317 8.87849 7.04114 8.61164 7.2 8.3992L7.206 8.3912L7.234 8.3532C7.37952 8.15296 7.51567 7.94607 7.642 7.73321C7.74932 7.56257 7.84359 7.38406 7.924 7.1992C7.976 7.07921 7.992 7.0152 7.998 6.99321C7.97671 6.8138 7.91517 6.64151 7.818 6.4892C7.63235 6.17891 7.42588 5.88156 7.2 5.59921L7.18 5.57521C6.90979 5.22982 6.66259 4.86704 6.44 4.4892C6.16759 4.03866 6.01604 3.52545 6 2.99921C6 2.62321 6.13 2.26321 6.238 2.01121C6.356 1.73521 6.506 1.46321 6.642 1.23521C6.80088 0.974189 6.96967 0.719337 7.148 0.471205L7.198 0.401205C7.35686 0.188767 7.59361 0.048138 7.85616 0.0102556C8.11872 -0.0276267 8.38556 0.0403404 8.598 0.199205C8.81044 0.35807 8.95107 0.594819 8.98895 0.85737C9.02683 1.11992 8.95886 1.38677 8.8 1.59921ZM14.8 1.59921L14.794 1.60721L14.766 1.64521C14.6205 1.84545 14.4843 2.05234 14.358 2.26521C14.2507 2.43585 14.1564 2.61435 14.076 2.79921C14.024 2.9192 14.008 2.98321 14.002 3.00521V3.01321C14.0251 3.19001 14.0872 3.35945 14.184 3.50921C14.334 3.77521 14.54 4.05321 14.8 4.39921L14.82 4.4232C15.056 4.7392 15.34 5.11721 15.56 5.50921C15.784 5.90921 16 6.41921 16 6.99921C16 7.37521 15.87 7.73521 15.762 7.98721C15.6464 8.25536 15.5114 8.51471 15.358 8.7632C15.2011 9.02547 15.0323 9.2804 14.852 9.5272L14.816 9.5772L14.806 9.5932L14.802 9.5972C14.6431 9.80964 14.4064 9.95027 14.1438 9.98815C13.8813 10.026 13.6144 9.95807 13.402 9.7992C13.1896 9.64034 13.0489 9.40359 13.0111 9.14104C12.9732 8.87849 13.0411 8.61164 13.2 8.3992L13.206 8.3912L13.234 8.3532C13.3795 8.15296 13.5157 7.94607 13.642 7.73321C13.7493 7.56257 13.8436 7.38406 13.924 7.1992C13.976 7.07921 13.992 7.0152 13.998 6.99321C13.9767 6.8138 13.9152 6.64151 13.818 6.4892C13.6323 6.17891 13.4259 5.88156 13.2 5.59921L13.18 5.57521C12.9098 5.22982 12.6626 4.86704 12.44 4.4892C12.1676 4.03866 12.016 3.52545 12 2.99921C12 2.62321 12.13 2.26321 12.238 2.01121C12.356 1.73521 12.506 1.46321 12.642 1.23521C12.8009 0.974189 12.9697 0.719337 13.148 0.471205L13.198 0.401205C13.3569 0.188767 13.5936 0.0481379 13.8562 0.0102556C14.1187 -0.0276268 14.3856 0.0403404 14.598 0.199205C14.8104 0.35807 14.9511 0.594819 14.9889 0.85737C15.0268 1.11992 14.9589 1.38677 14.8 1.59921ZM20.8 1.59921L20.794 1.60721L20.766 1.64521C20.6205 1.84545 20.4843 2.05234 20.358 2.26521C20.2507 2.43585 20.1564 2.61435 20.076 2.79921C20.024 2.9192 20.008 2.98321 20.002 3.00521V3.01321C20.0251 3.19001 20.0872 3.35945 20.184 3.50921C20.334 3.77521 20.54 4.05321 20.8 4.39921L20.82 4.4232C21.056 4.7392 21.34 5.11721 21.56 5.50921C21.784 5.90921 22 6.41921 22 6.99921C22 7.37521 21.87 7.73521 21.762 7.98721C21.6464 8.25536 21.5114 8.51471 21.358 8.7632C21.2017 9.02543 21.0336 9.28036 20.854 9.5272L20.816 9.5772L20.806 9.5932L20.802 9.5972C20.6431 9.80964 20.4064 9.95027 20.1438 9.98815C19.8813 10.026 19.6144 9.95807 19.402 9.7992C19.1896 9.64034 19.0489 9.40359 19.0111 9.14104C18.9732 8.87849 19.0411 8.61164 19.2 8.3992L19.206 8.3912L19.234 8.3532C19.3795 8.15296 19.5157 7.94607 19.642 7.73321C19.7493 7.56257 19.8436 7.38406 19.924 7.1992C19.976 7.07921 19.992 7.0152 19.998 6.99321C19.9767 6.8138 19.9152 6.64151 19.818 6.4892C19.6324 6.17891 19.4259 5.88156 19.2 5.59921L19.18 5.57521C18.9098 5.22982 18.6626 4.86704 18.44 4.4892C18.1676 4.03866 18.016 3.52545 18 2.99921C18 2.62321 18.13 2.26321 18.238 2.01121C18.356 1.73521 18.506 1.46321 18.642 1.23521C18.8009 0.974189 18.9697 0.719337 19.148 0.471205L19.198 0.401205C19.3569 0.188767 19.5936 0.0481379 19.8562 0.0102556C20.1187 -0.0276268 20.3856 0.0403404 20.598 0.199205C20.8104 0.35807 20.9511 0.594819 20.9889 0.85737C21.0268 1.11992 20.9589 1.38677 20.8 1.59921Z" fill="#EE9949"/>
        </g>
        <defs>
        <clipPath id="clip0_34_952">
        <rect width="32" height="32" fill="white"/>
        </clipPath>
        </defs>
    </symbol>
    <!--  Ошибки в работе ПК  -->
    <symbol id="pc-errors" viewBox="0 0 32 33">
        <path d="M9.956 1.70944C9.92256 1.57859 9.86297 1.45587 9.78081 1.34869C9.69865 1.2415 9.59563 1.15206 9.47796 1.08577C9.3603 1.01949 9.23042 0.97772 9.09618 0.962994C8.96193 0.948268 8.82609 0.960887 8.69685 1.00009C8.56761 1.0393 8.44765 1.10427 8.34421 1.1911C8.24077 1.27793 8.15599 1.38481 8.09498 1.5053C8.03397 1.62579 7.998 1.75738 7.98924 1.89215C7.98048 2.02692 7.99911 2.16207 8.044 2.28944L8.864 4.99344C7.02829 6.86334 5.99988 9.37907 6 11.9994H26C26.0001 9.37907 24.9717 6.86334 23.136 4.99344L23.956 2.28944C24.0009 2.16207 24.0195 2.02692 24.0108 1.89215C24.002 1.75738 23.966 1.62579 23.905 1.5053C23.844 1.38481 23.7592 1.27793 23.6558 1.1911C23.5523 1.10427 23.4324 1.0393 23.3032 1.00009C23.1739 0.960887 23.0381 0.948268 22.9038 0.962994C22.7696 0.97772 22.6397 1.01949 22.522 1.08577C22.4044 1.15206 22.3014 1.2415 22.2192 1.34869C22.137 1.45587 22.0774 1.57859 22.044 1.70944L21.462 3.62144C19.8371 2.56255 17.9394 1.99901 16 1.99944C14.0606 1.99901 12.1629 2.56255 10.538 3.62144L9.956 1.70944Z" fill="#DF1010"/>
        <path d="M26 12V14H17V31.95C19.4666 31.7021 21.7533 30.5468 23.4162 28.7083C25.0792 26.8698 26 24.4791 26 22H27C27.2652 22 27.5196 22.1054 27.7071 22.2929C27.8946 22.4804 28 22.7348 28 23V24C28 24.2652 28.1054 24.5196 28.2929 24.7071C28.4804 24.8946 28.7348 25 29 25C29.2652 25 29.5196 24.8946 29.7071 24.7071C29.8946 24.5196 30 24.2652 30 24V23C30 22.2044 29.6839 21.4413 29.1213 20.8787C28.5587 20.3161 27.7956 20 27 20H26V18H29C29.2652 18 29.5196 17.8946 29.7071 17.7071C29.8946 17.5196 30 17.2652 30 17C30 16.7348 29.8946 16.4804 29.7071 16.2929C29.5196 16.1054 29.2652 16 29 16H26V14H27C27.7956 14 28.5587 13.6839 29.1213 13.1213C29.6839 12.5587 30 11.7956 30 11V10C30 9.73478 29.8946 9.48043 29.7071 9.29289C29.5196 9.10536 29.2652 9 29 9C28.7348 9 28.4804 9.10536 28.2929 9.29289C28.1054 9.48043 28 9.73478 28 10V11C28 11.2652 27.8946 11.5196 27.7071 11.7071C27.5196 11.8946 27.2652 12 27 12H26ZM15 31.95V14H6V12H5C4.73478 12 4.48043 11.8946 4.29289 11.7071C4.10536 11.5196 4 11.2652 4 11V10C4 9.73478 3.89464 9.48043 3.70711 9.29289C3.51957 9.10536 3.26522 9 3 9C2.73478 9 2.48043 9.10536 2.29289 9.29289C2.10536 9.48043 2 9.73478 2 10V11C2 11.7956 2.31607 12.5587 2.87868 13.1213C3.44129 13.6839 4.20435 14 5 14H6V16H3C2.73478 16 2.48043 16.1054 2.29289 16.2929C2.10536 16.4804 2 16.7348 2 17C2 17.2652 2.10536 17.5196 2.29289 17.7071C2.48043 17.8946 2.73478 18 3 18H6V20H5C4.20435 20 3.44129 20.3161 2.87868 20.8787C2.31607 21.4413 2 22.2044 2 23V24C2 24.2652 2.10536 24.5196 2.29289 24.7071C2.48043 24.8946 2.73478 25 3 25C3.26522 25 3.51957 24.8946 3.70711 24.7071C3.89464 24.5196 4 24.2652 4 24V23C4 22.7348 4.10536 22.4804 4.29289 22.2929C4.48043 22.1054 4.73478 22 5 22H6C5.99997 24.4791 6.92077 26.8698 8.58376 28.7083C10.2467 30.5468 12.5334 31.7021 15 31.95Z" fill="#DF1010"/>
    </symbol>
    <!-- Мониторинг склада -->
    <symbol id="warehouse-monitoring" viewBox="0 0 32 33">
        <g clip-path="url(#clip0_34_1015)">
        <path d="M7.5 0.192383C7.18951 0.192383 6.88328 0.264673 6.60557 0.403528C6.32786 0.542384 6.08629 0.743991 5.9 0.992383L0.2 8.59238C0.0701779 8.76548 0 8.97601 0 9.19238L0 30.1924C0 30.7228 0.210714 31.2315 0.585786 31.6066C0.960859 31.9817 1.46957 32.1924 2 32.1924H30C30.5304 32.1924 31.0391 31.9817 31.4142 31.6066C31.7893 31.2315 32 30.7228 32 30.1924V9.19238C32 8.97601 31.9298 8.76548 31.8 8.59238L26.1 0.992383C25.9137 0.743991 25.6721 0.542384 25.3944 0.403528C25.1167 0.264673 24.8105 0.192383 24.5 0.192383H7.5ZM30 9.52638V10.1924H2V9.52638L3 8.19238H15V2.19238H17V8.19238H29L30 9.52638Z" fill="#FFBE72"/>
        </g>
        <defs>
        <clipPath id="clip0_34_1015">
        <rect width="32" height="32" fill="white" transform="translate(0 0.192383)"/>
        </clipPath>
        </defs>
    </symbol>
    <!-- Экспедиторские расписки -->
    <symbol id="receipts" viewBox="0 0 32 33">
        <g clip-path="url(#clip0_34_1021)">
        <path d="M18.586 0.192383H8C6.93913 0.192383 5.92172 0.61381 5.17157 1.36396C4.42143 2.1141 4 3.13152 4 4.19238V28.1924C4 29.2532 4.42143 30.2707 5.17157 31.0208C5.92172 31.771 6.93913 32.1924 8 32.1924H24C25.0609 32.1924 26.0783 31.771 26.8284 31.0208C27.5786 30.2707 28 29.2532 28 28.1924V9.60638C27.9999 9.07599 27.7891 8.56737 27.414 8.19238L20 0.778383C19.625 0.403284 19.1164 0.192496 18.586 0.192383ZM19 7.19238V3.19238L25 9.19238H21C20.4696 9.19238 19.9609 8.98167 19.5858 8.6066C19.2107 8.23152 19 7.72282 19 7.19238ZM13 11.1924V12.4604L14.098 11.8264C14.2118 11.7597 14.3376 11.7162 14.4683 11.6983C14.5989 11.6804 14.7318 11.6886 14.8593 11.7223C14.9868 11.756 15.1064 11.8146 15.2112 11.8947C15.3159 11.9748 15.4038 12.0748 15.4698 12.1891C15.5357 12.3033 15.5784 12.4294 15.5954 12.5602C15.6124 12.691 15.6034 12.8238 15.5688 12.9511C15.5343 13.0783 15.4749 13.1975 15.3941 13.3018C15.3133 13.406 15.2126 13.4932 15.098 13.5584L14 14.1924L15.098 14.8264C15.2126 14.8916 15.3133 14.9788 15.3941 15.083C15.4749 15.1872 15.5343 15.3064 15.5688 15.4337C15.6034 15.561 15.6124 15.6938 15.5954 15.8246C15.5784 15.9554 15.5357 16.0815 15.4698 16.1957C15.4038 16.3099 15.3159 16.41 15.2112 16.4901C15.1064 16.5702 14.9868 16.6288 14.8593 16.6625C14.7318 16.6962 14.5989 16.7043 14.4683 16.6865C14.3376 16.6686 14.2118 16.6251 14.098 16.5584L13 15.9244V17.1924C13 17.4576 12.8946 17.712 12.7071 17.8995C12.5196 18.087 12.2652 18.1924 12 18.1924C11.7348 18.1924 11.4804 18.087 11.2929 17.8995C11.1054 17.712 11 17.4576 11 17.1924V15.9244L9.902 16.5584C9.78823 16.6251 9.66239 16.6686 9.53172 16.6865C9.40106 16.7043 9.26815 16.6962 9.14065 16.6625C9.01315 16.6288 8.89358 16.5702 8.78882 16.4901C8.68406 16.41 8.59618 16.3099 8.53024 16.1957C8.46429 16.0815 8.4216 15.9554 8.4046 15.8246C8.3876 15.6938 8.39664 15.561 8.43119 15.4337C8.46574 15.3064 8.52513 15.1872 8.60593 15.083C8.68673 14.9788 8.78735 14.8916 8.902 14.8264L10 14.1924L8.902 13.5584C8.67419 13.4248 8.50846 13.2066 8.44096 12.9513C8.37347 12.696 8.40969 12.4244 8.54173 12.1957C8.67376 11.967 8.89089 11.7998 9.14574 11.7306C9.40058 11.6614 9.67244 11.6959 9.902 11.8264L11 12.4604V11.1924C11 10.9272 11.1054 10.6728 11.2929 10.4853C11.4804 10.2977 11.7348 10.1924 12 10.1924C12.2652 10.1924 12.5196 10.2977 12.7071 10.4853C12.8946 10.6728 13 10.9272 13 11.1924ZM9 20.1924H19C19.2652 20.1924 19.5196 20.2977 19.7071 20.4853C19.8946 20.6728 20 20.9272 20 21.1924C20 21.4576 19.8946 21.712 19.7071 21.8995C19.5196 22.087 19.2652 22.1924 19 22.1924H9C8.73478 22.1924 8.48043 22.087 8.29289 21.8995C8.10536 21.712 8 21.4576 8 21.1924C8 20.9272 8.10536 20.6728 8.29289 20.4853C8.48043 20.2977 8.73478 20.1924 9 20.1924ZM9 24.1924H19C19.2652 24.1924 19.5196 24.2977 19.7071 24.4853C19.8946 24.6728 20 24.9272 20 25.1924C20 25.4576 19.8946 25.712 19.7071 25.8995C19.5196 26.087 19.2652 26.1924 19 26.1924H9C8.73478 26.1924 8.48043 26.087 8.29289 25.8995C8.10536 25.712 8 25.4576 8 25.1924C8 24.9272 8.10536 24.6728 8.29289 24.4853C8.48043 24.2977 8.73478 24.1924 9 24.1924Z" fill="#D0BFE1"/>
        </g>
        <defs>
        <clipPath id="clip0_34_1021">
        <rect width="32" height="32" fill="white" transform="translate(0 0.192383)"/>
        </clipPath>
        </defs>
    </symbol>
    <!-- Сертификаты товаров -->
    <symbol id="certificates" viewBox="0 0 32 33">
        <g clip-path="url(#clip0_34_1027)">
        <path d="M18.586 0.192383H8C6.93913 0.192383 5.92172 0.61381 5.17157 1.36396C4.42143 2.1141 4 3.13152 4 4.19238V28.1924C4 29.2532 4.42143 30.2707 5.17157 31.0208C5.92172 31.771 6.93913 32.1924 8 32.1924H24C25.0609 32.1924 26.0783 31.771 26.8284 31.0208C27.5786 30.2707 28 29.2532 28 28.1924V9.60638C27.9999 9.07599 27.7891 8.56737 27.414 8.19238L20 0.778383C19.625 0.403284 19.1164 0.192496 18.586 0.192383ZM19 7.19238V3.19238L25 9.19238H21C20.4696 9.19238 19.9609 8.98167 19.5858 8.6066C19.2107 8.23152 19 7.72282 19 7.19238ZM9 18.1924C8.73478 18.1924 8.48043 18.087 8.29289 17.8995C8.10536 17.712 8 17.4576 8 17.1924C8 16.9272 8.10536 16.6728 8.29289 16.4853C8.48043 16.2977 8.73478 16.1924 9 16.1924H23C23.2652 16.1924 23.5196 16.2977 23.7071 16.4853C23.8946 16.6728 24 16.9272 24 17.1924C24 17.4576 23.8946 17.712 23.7071 17.8995C23.5196 18.087 23.2652 18.1924 23 18.1924H9ZM8 21.1924C8 20.9272 8.10536 20.6728 8.29289 20.4853C8.48043 20.2977 8.73478 20.1924 9 20.1924H23C23.2652 20.1924 23.5196 20.2977 23.7071 20.4853C23.8946 20.6728 24 20.9272 24 21.1924C24 21.4576 23.8946 21.712 23.7071 21.8995C23.5196 22.087 23.2652 22.1924 23 22.1924H9C8.73478 22.1924 8.48043 22.087 8.29289 21.8995C8.10536 21.712 8 21.4576 8 21.1924ZM9 26.1924C8.73478 26.1924 8.48043 26.087 8.29289 25.8995C8.10536 25.712 8 25.4576 8 25.1924C8 24.9272 8.10536 24.6728 8.29289 24.4853C8.48043 24.2977 8.73478 24.1924 9 24.1924H17C17.2652 24.1924 17.5196 24.2977 17.7071 24.4853C17.8946 24.6728 18 24.9272 18 25.1924C18 25.4576 17.8946 25.712 17.7071 25.8995C17.5196 26.087 17.2652 26.1924 17 26.1924H9Z" fill="#FFC703"/>
        </g>
        <defs>
        <clipPath id="clip0_34_1027">
        <rect width="32" height="32" fill="white" transform="translate(0 0.192383)"/>
        </clipPath>
        </defs>
    </symbol>
    <!-- Кадры -->
    <symbol id="personnel" viewBox="0 0 32 33">
        <g clip-path="url(#clip0_34_1151)">
        <path d="M18.586 0.384766H8C6.93913 0.384766 5.92172 0.806193 5.17157 1.55634C4.42143 2.30648 4 3.3239 4 4.38477V28.3848C4 29.4456 4.42143 30.463 5.17157 31.2132C5.92172 31.9633 6.93913 32.3848 8 32.3848H24C25.0609 32.3848 26.0783 31.9633 26.8284 31.2132C27.5786 30.463 28 29.4456 28 28.3848V9.79877C27.9999 9.26838 27.7891 8.75975 27.414 8.38477L20 0.970766C19.625 0.595667 19.1164 0.384879 18.586 0.384766ZM19 7.38477V3.38477L25 9.38477H21C20.4696 9.38477 19.9609 9.17405 19.5858 8.79898C19.2107 8.42391 19 7.9152 19 7.38477ZM22 16.3848C22 17.9761 21.3679 19.5022 20.2426 20.6274C19.1174 21.7526 17.5913 22.3848 16 22.3848C14.4087 22.3848 12.8826 21.7526 11.7574 20.6274C10.6321 19.5022 10 17.9761 10 16.3848C10 14.7935 10.6321 13.2673 11.7574 12.1421C12.8826 11.0169 14.4087 10.3848 16 10.3848C17.5913 10.3848 19.1174 11.0169 20.2426 12.1421C21.3679 13.2673 22 14.7935 22 16.3848ZM26 27.8948V28.3848C26 28.9152 25.7893 29.4239 25.4142 29.799C25.0391 30.1741 24.5304 30.3848 24 30.3848H8C7.46957 30.3848 6.96086 30.1741 6.58579 29.799C6.21071 29.4239 6 28.9152 6 28.3848V27.8948C6 27.8948 8 24.3848 16 24.3848C24 24.3848 26 27.8948 26 27.8948Z" fill="#303030"/>
        </g>
        <defs>
        <clipPath id="clip0_34_1151">
        <rect width="32" height="32" fill="white" transform="translate(0 0.384766)"/>
        </clipPath>
        </defs>
    </symbol>
    <!-- Договоры -->
    <symbol id="treaties" viewBox="0 0 32 33">
        <g clip-path="url(#clip0_34_1134)">
        <path d="M18.586 0.384766H8C6.93913 0.384766 5.92172 0.806193 5.17157 1.55634C4.42143 2.30648 4 3.3239 4 4.38477V28.3848C4 29.4456 4.42143 30.463 5.17157 31.2132C5.92172 31.9633 6.93913 32.3848 8 32.3848H24C25.0609 32.3848 26.0783 31.9633 26.8284 31.2132C27.5786 30.463 28 29.4456 28 28.3848V9.79877C27.9999 9.26838 27.7891 8.75975 27.414 8.38477L20 0.970766C19.625 0.595667 19.1164 0.384879 18.586 0.384766ZM19 7.38477V3.38477L25 9.38477H21C20.4696 9.38477 19.9609 9.17405 19.5858 8.79898C19.2107 8.42391 19 7.9152 19 7.38477ZM9 18.3848C8.73478 18.3848 8.48043 18.2794 8.29289 18.0919C8.10536 17.9043 8 17.65 8 17.3848C8 17.1195 8.10536 16.8652 8.29289 16.6777C8.48043 16.4901 8.73478 16.3848 9 16.3848H23C23.2652 16.3848 23.5196 16.4901 23.7071 16.6777C23.8946 16.8652 24 17.1195 24 17.3848C24 17.65 23.8946 17.9043 23.7071 18.0919C23.5196 18.2794 23.2652 18.3848 23 18.3848H9ZM8 21.3848C8 21.1195 8.10536 20.8652 8.29289 20.6777C8.48043 20.4901 8.73478 20.3848 9 20.3848H23C23.2652 20.3848 23.5196 20.4901 23.7071 20.6777C23.8946 20.8652 24 21.1195 24 21.3848C24 21.65 23.8946 21.9043 23.7071 22.0919C23.5196 22.2794 23.2652 22.3848 23 22.3848H9C8.73478 22.3848 8.48043 22.2794 8.29289 22.0919C8.10536 21.9043 8 21.65 8 21.3848ZM9 26.3848C8.73478 26.3848 8.48043 26.2794 8.29289 26.0919C8.10536 25.9043 8 25.65 8 25.3848C8 25.1195 8.10536 24.8652 8.29289 24.6777C8.48043 24.4901 8.73478 24.3848 9 24.3848H17C17.2652 24.3848 17.5196 24.4901 17.7071 24.6777C17.8946 24.8652 18 25.1195 18 25.3848C18 25.65 17.8946 25.9043 17.7071 26.0919C17.5196 26.2794 17.2652 26.3848 17 26.3848H9Z" fill="currentColor"/>
        </g>
        <defs>
        <clipPath id="clip0_34_1134">
        <rect width="32" height="32" fill="white" transform="translate(0 0.384766)"/>
        </clipPath>
        </defs>
    </symbol>
    <!-- Должная осмотрительность -->
    <symbol id="due-diligence" viewBox="0 0 32 33">
        <path d="M21 16.3848C21 17.7108 20.4732 18.9826 19.5355 19.9203C18.5979 20.858 17.3261 21.3848 16 21.3848C14.6739 21.3848 13.4021 20.858 12.4645 19.9203C11.5268 18.9826 11 17.7108 11 16.3848C11 15.0587 11.5268 13.7869 12.4645 12.8492C13.4021 11.9115 14.6739 11.3848 16 11.3848C17.3261 11.3848 18.5979 11.9115 19.5355 12.8492C20.4732 13.7869 21 15.0587 21 16.3848Z" fill="#303030"/>
        <path d="M0 16.3848C0 16.3848 6 5.38477 16 5.38477C26 5.38477 32 16.3848 32 16.3848C32 16.3848 26 27.3848 16 27.3848C6 27.3848 0 16.3848 0 16.3848ZM16 23.3848C17.8565 23.3848 19.637 22.6473 20.9497 21.3345C22.2625 20.0218 23 18.2413 23 16.3848C23 14.5282 22.2625 12.7478 20.9497 11.435C19.637 10.1223 17.8565 9.38477 16 9.38477C14.1435 9.38477 12.363 10.1223 11.0503 11.435C9.7375 12.7478 9 14.5282 9 16.3848C9 18.2413 9.7375 20.0218 11.0503 21.3345C12.363 22.6473 14.1435 23.3848 16 23.3848Z" fill="#303030"/>
    </symbol>
    <!-- Самозанятые -->
    <symbol id="self-employed" viewBox="0 0 32 33">
        <g clip-path="url(#clip0_34_1146)">
        <path d="M8 32.3844C8 32.3844 6 32.3844 6 30.3844C6 28.3844 8 22.3844 16 22.3844C24 22.3844 26 28.3844 26 30.3844C26 32.3844 24 32.3844 24 32.3844H8ZM16 20.4844C17.3261 20.4844 18.5979 19.9576 19.5355 19.0199C20.4732 18.0822 21 16.8105 21 15.4844C21 14.1583 20.4732 12.8865 19.5355 11.9488C18.5979 11.0112 17.3261 10.4844 16 10.4844C14.6739 10.4844 13.4021 11.0112 12.4645 11.9488C11.5268 12.8865 11 14.1583 11 15.4844C11 16.8105 11.5268 18.0822 12.4645 19.0199C13.4021 19.9576 14.6739 20.4844 16 20.4844Z" fill="#303030"/>
        <path d="M4 2.38477C2.93913 2.38477 1.92172 2.80619 1.17157 3.55634C0.421427 4.30648 0 5.3239 0 6.38477L0 25.3848C0 26.1804 0.31607 26.9435 0.87868 27.5061C1.44129 28.0687 2.20435 28.3848 3 28.3848H4.306C4.72572 26.9156 5.45239 25.5523 6.438 24.3848H2V6.38477C2 5.85433 2.21071 5.34562 2.58579 4.97055C2.96086 4.59548 3.46957 4.38477 4 4.38477H28C28.5304 4.38477 29.0391 4.59548 29.4142 4.97055C29.7893 5.34562 30 5.85433 30 6.38477V24.3848H25.562C26.67 25.6928 27.342 27.1308 27.694 28.3848H29C29.7956 28.3848 30.5587 28.0687 31.1213 27.5061C31.6839 26.9435 32 26.1804 32 25.3848V6.38477C32 5.3239 31.5786 4.30648 30.8284 3.55634C30.0783 2.80619 29.0609 2.38477 28 2.38477H4Z" fill="#303030"/>
        </g>
        <defs>
        <clipPath id="clip0_34_1146">
        <rect width="32" height="32" fill="white" transform="translate(0 0.384766)"/>
        </clipPath>
        </defs>
    </symbol>
    <!-- Внутренние регламенты компании -->
    <symbol id="company-regulations" viewBox="0 0 32 33">
        <g clip-path="url(#clip0_34_1156)">
        <path d="M11.0517 20.9316C9.9677 20.9316 9.3877 22.0576 9.3877 24.1556C9.3877 24.333 9.3917 24.501 9.3997 24.6596L12.5177 22.3736C12.2657 21.4256 11.7677 20.9336 11.0517 20.9336V20.9316ZM9.5877 25.9476C9.8397 26.8916 10.3317 27.3836 11.0517 27.3836C12.1317 27.3836 12.7117 26.2576 12.7117 24.1556C12.7117 23.9836 12.7077 23.817 12.6997 23.6556L9.5877 25.9476Z" fill="#303030"/>
        <path d="M18.586 0.384766H8C6.93913 0.384766 5.92172 0.806193 5.17157 1.55634C4.42143 2.30648 4 3.3239 4 4.38477V28.3848C4 29.4456 4.42143 30.463 5.17157 31.2132C5.92172 31.9633 6.93913 32.3848 8 32.3848H24C25.0609 32.3848 26.0783 31.9633 26.8284 31.2132C27.5786 30.463 28 29.4456 28 28.3848V9.79877C27.9999 9.26838 27.7891 8.75975 27.414 8.38477L20 0.970766C19.625 0.595667 19.1164 0.384879 18.586 0.384766ZM19 7.38477V3.38477L25 9.38477H21C20.4696 9.38477 19.9609 9.17405 19.5858 8.79898C19.2107 8.42391 19 7.9152 19 7.38477ZM14.1 24.1548C14.1 26.9848 13.004 28.5668 11.052 28.5668C9.096 28.5648 8 26.9848 8 24.1548C8 21.3308 9.096 19.7488 11.052 19.7488C13.004 19.7488 14.1 21.3288 14.1 24.1548ZM21.71 27.1948V28.3848H15.71V27.1948H18.072V21.3848H17.972L15.7 22.8788V21.5028L18.08 19.9308H19.46V27.1968L21.71 27.1948Z" fill="#303030"/>
        </g>
        <defs>
        <clipPath id="clip0_34_1156">
        <rect width="32" height="32" fill="white" transform="translate(0 0.384766)"/>
        </clipPath>
        </defs>
    </symbol>
    <!-- Приказы и распоряжения -->
    <symbol id="orders-instructions" viewBox="0 0 32 33">
        <g clip-path="url(#clip0_34_1101)">
        <path d="M18.586 0.384766H8C6.93913 0.384766 5.92172 0.806193 5.17157 1.55634C4.42143 2.30648 4 3.3239 4 4.38477V28.3848C4 29.4456 4.42143 30.463 5.17157 31.2132C5.92172 31.9633 6.93913 32.3848 8 32.3848H24C25.0609 32.3848 26.0783 31.9633 26.8284 31.2132C27.5786 30.463 28 29.4456 28 28.3848V9.79877C27.9999 9.26838 27.7891 8.75975 27.414 8.38477L20 0.970766C19.625 0.595667 19.1164 0.384879 18.586 0.384766ZM19 7.38477V3.38477L25 9.38477H21C20.4696 9.38477 19.9609 9.17405 19.5858 8.79898C19.2107 8.42391 19 7.9152 19 7.38477ZM9 18.3848C8.73478 18.3848 8.48043 18.2794 8.29289 18.0919C8.10536 17.9043 8 17.65 8 17.3848C8 17.1195 8.10536 16.8652 8.29289 16.6777C8.48043 16.4901 8.73478 16.3848 9 16.3848H23C23.2652 16.3848 23.5196 16.4901 23.7071 16.6777C23.8946 16.8652 24 17.1195 24 17.3848C24 17.65 23.8946 17.9043 23.7071 18.0919C23.5196 18.2794 23.2652 18.3848 23 18.3848H9ZM8 21.3848C8 21.1195 8.10536 20.8652 8.29289 20.6777C8.48043 20.4901 8.73478 20.3848 9 20.3848H23C23.2652 20.3848 23.5196 20.4901 23.7071 20.6777C23.8946 20.8652 24 21.1195 24 21.3848C24 21.65 23.8946 21.9043 23.7071 22.0919C23.5196 22.2794 23.2652 22.3848 23 22.3848H9C8.73478 22.3848 8.48043 22.2794 8.29289 22.0919C8.10536 21.9043 8 21.65 8 21.3848ZM9 26.3848C8.73478 26.3848 8.48043 26.2794 8.29289 26.0919C8.10536 25.9043 8 25.65 8 25.3848C8 25.1195 8.10536 24.8652 8.29289 24.6777C8.48043 24.4901 8.73478 24.3848 9 24.3848H17C17.2652 24.3848 17.5196 24.4901 17.7071 24.6777C17.8946 24.8652 18 25.1195 18 25.3848C18 25.65 17.8946 25.9043 17.7071 26.0919C17.5196 26.2794 17.2652 26.3848 17 26.3848H9Z" fill="#303030"/>
        </g>
        <defs>
        <clipPath id="clip0_34_1101">
        <rect width="32" height="32" fill="white" transform="translate(0 0.384766)"/>
        </clipPath>
        </defs>
    </symbol>
    <!-- Доп. соглашения -->
    <symbol id="agreements" viewBox="0 0 32 33">
        <g clip-path="url(#clip0_34_1161)">
        <path d="M18.586 0.384766H8C6.93913 0.384766 5.92172 0.806193 5.17157 1.55634C4.42143 2.30648 4 3.3239 4 4.38477V28.3848C4 29.4456 4.42143 30.463 5.17157 31.2132C5.92172 31.9633 6.93913 32.3848 8 32.3848H24C25.0609 32.3848 26.0783 31.9633 26.8284 31.2132C27.5786 30.463 28 29.4456 28 28.3848V9.79877C27.9999 9.26838 27.7891 8.75975 27.414 8.38477L20 0.970766C19.625 0.595667 19.1164 0.384879 18.586 0.384766ZM19 7.38477V3.38477L25 9.38477H21C20.4696 9.38477 19.9609 9.17405 19.5858 8.79898C19.2107 8.42391 19 7.9152 19 7.38477ZM17 14.3848V17.3848H20C20.2652 17.3848 20.5196 17.4901 20.7071 17.6777C20.8946 17.8652 21 18.1195 21 18.3848C21 18.65 20.8946 18.9043 20.7071 19.0919C20.5196 19.2794 20.2652 19.3848 20 19.3848H17V22.3848C17 22.65 16.8946 22.9043 16.7071 23.0919C16.5196 23.2794 16.2652 23.3848 16 23.3848C15.7348 23.3848 15.4804 23.2794 15.2929 23.0919C15.1054 22.9043 15 22.65 15 22.3848V19.3848H12C11.7348 19.3848 11.4804 19.2794 11.2929 19.0919C11.1054 18.9043 11 18.65 11 18.3848C11 18.1195 11.1054 17.8652 11.2929 17.6777C11.4804 17.4901 11.7348 17.3848 12 17.3848H15V14.3848C15 14.1195 15.1054 13.8652 15.2929 13.6777C15.4804 13.4901 15.7348 13.3848 16 13.3848C16.2652 13.3848 16.5196 13.4901 16.7071 13.6777C16.8946 13.8652 17 14.1195 17 14.3848Z" fill="currentColor"/>
        </g>
        <defs>
        <clipPath id="clip0_34_1161">
        <rect width="32" height="32" fill="white" transform="translate(0 0.384766)"/>
        </clipPath>
        </defs>
    </symbol>
    <!-- Командировка -->
    <symbol id="business-trip" viewBox="0 0 32 33">
        <path d="M13 2.38477C12.2044 2.38477 11.4413 2.70084 10.8787 3.26345C10.3161 3.82605 10 4.58912 10 5.38477V6.38477H3C2.20435 6.38477 1.44129 6.70084 0.87868 7.26345C0.31607 7.82605 0 8.58912 0 9.38477L0 12.1528L15.228 16.2128C15.7339 16.3475 16.2661 16.3475 16.772 16.2128L32 12.1528V9.38477C32 8.58912 31.6839 7.82605 31.1213 7.26345C30.5587 6.70084 29.7956 6.38477 29 6.38477H22V5.38477C22 4.58912 21.6839 3.82605 21.1213 3.26345C20.5587 2.70084 19.7956 2.38477 19 2.38477H13ZM13 4.38477H19C19.2652 4.38477 19.5196 4.49012 19.7071 4.67766C19.8946 4.8652 20 5.11955 20 5.38477V6.38477H12V5.38477C12 5.11955 12.1054 4.8652 12.2929 4.67766C12.4804 4.49012 12.7348 4.38477 13 4.38477Z" fill="#303030"/>
        <path d="M0 25.384C0 26.1796 0.31607 26.9427 0.87868 27.5053C1.44129 28.0679 2.20435 28.384 3 28.384H29C29.7956 28.384 30.5587 28.0679 31.1213 27.5053C31.6839 26.9427 32 26.1796 32 25.384V14.084L16.258 18.278C16.089 18.3231 15.911 18.3231 15.742 18.278L0 14.084V25.384Z" fill="#303030"/>
    </symbol>
    <!-- фотография -->
    <symbol id="foto" viewBox="0 0 32 33">
        <g clip-path="url(#clip0_28_805)">
        <path d="M22.52 12C22.52 13.5913 21.8879 15.1174 20.7627 16.2426C19.6374 17.3679 18.1113 18 16.52 18C14.9287 18 13.4026 17.3679 12.2774 16.2426C11.1522 15.1174 10.52 13.5913 10.52 12C10.52 10.4087 11.1522 8.88258 12.2774 7.75736C13.4026 6.63214 14.9287 6 16.52 6C18.1113 6 19.6374 6.63214 20.7627 7.75736C21.8879 8.88258 22.52 10.4087 22.52 12Z" fill="#BABABA"/>
        <path fill-rule="evenodd" clip-rule="evenodd" d="M0.52002 16C0.52002 11.7565 2.20573 7.68687 5.20631 4.68629C8.20689 1.68571 12.2766 0 16.52 0C20.7635 0 24.8331 1.68571 27.8337 4.68629C30.8343 7.68687 32.52 11.7565 32.52 16C32.52 20.2435 30.8343 24.3131 27.8337 27.3137C24.8331 30.3143 20.7635 32 16.52 32C12.2766 32 8.20689 30.3143 5.20631 27.3137C2.20573 24.3131 0.52002 20.2435 0.52002 16ZM16.52 2C13.8836 2.00014 11.3008 2.74473 9.06882 4.14806C6.8369 5.55139 5.04659 7.55642 3.90395 9.93239C2.76131 12.3084 2.31279 14.9587 2.61002 17.5783C2.90724 20.198 3.93813 22.6804 5.58402 24.74C7.00402 22.452 10.13 20 16.52 20C22.91 20 26.034 22.45 27.456 24.74C29.1019 22.6804 30.1328 20.198 30.43 17.5783C30.7272 14.9587 30.2787 12.3084 29.1361 9.93239C27.9935 7.55642 26.2031 5.55139 23.9712 4.14806C21.7393 2.74473 19.1565 2.00014 16.52 2Z" fill="#BABABA"/>
        </g>
        <defs>
        <clipPath id="clip0_28_805">
        <rect width="32" height="32" fill="white" transform="translate(0.52002)"/>
        </clipPath>
        </defs>
    </symbol>

    <!-- dropdown arrow -->
    <symbol id="dropdown-arrow" viewBox="0 0 14 6">
        <path d="M7.26 5.39356L0.556963 0.303935L13.963 0.303934L7.26 5.39356Z" fill="currentColor"/>
    </symbol>

    <symbol id="logo-mini" viewBox="0 0 1289 1146">
        <path d="M830.388 240.015L953.83 0L1174.01 376.687L977.181 736.706H810.372L1017.21 380.019L936.14 241.25L830.388 240.015Z" fill="#EF7A1C" />
        <path d="M593.104 801.678L673.133 940.747H1080.23L1289 586.121L1214.2 452.264L1008.28 800.897L593.104 801.678Z" fill="#EF7A1C" />
        <path d="M1048.86 1002.26L971.492 1146H552.019L356.18 783.63L431.13 653.168L633.012 998.633L1048.86 1002.26Z" fill="#818282" />
        <path d="M486.126 424.267H327.312L118.779 781.662L320.407 1143.2H477.84L277.593 780.282L486.126 424.267Z" fill="#818282" />
        <path d="M240.303 166.209L330.073 25.4609H737.461L817.563 166.209L770.607 279.358H887.998L950.137 377.336L865.901 504.284L653.225 168.969L240.303 166.209Z" fill="#BABABA" />
        <path d="M0 579.658L88.8883 713.66L294.732 363.066H703.302L619.092 224.388H212.085L0 579.658Z" fill="#BABABA" />
    </symbol>
    <!-- yotube -->
    <symbol id="youtube" viewBox="0 0 41 10">
        <path d="M12.8 1.53c-.15-.56-.6-1-1.16-1.15C10.62.1 6.54.1 6.54.1s-4.1 0-5.11.28C.87.53.43.97.27 1.53 0 2.55 0 4.68 0 4.68S0 6.8.27 7.82c.15.57.6 1 1.16 1.16 1.02.27 5.1.27 5.1.27s4.1 0 5.11-.27c.56-.15 1-.6 1.16-1.16.27-1.02.27-3.14.27-3.14s0-2.13-.27-3.15z" fill="#ed1f24"/><path d="M5.23 6.64l3.4-1.96-3.4-1.96v3.92z" fill="#fff"/><path d="M20.42 7.53c.07-.19.1-.5.1-.92V4.83c0-.41-.03-.71-.1-.9-.07-.2-.2-.29-.38-.29-.17 0-.3.1-.37.29-.07.19-.1.49-.1.9V6.6c0 .43.03.73.1.92.06.19.19.28.37.28s.3-.1.38-.28zm-1.45.9a1.42 1.42 0 01-.55-.82 5.16 5.16 0 01-.17-1.46V5.3c0-.61.07-1.1.2-1.48.12-.38.31-.65.58-.82a1.9 1.9 0 011.04-.26c.42 0 .76.09 1.02.26.25.18.44.45.56.82.12.37.17.87.17 1.48v.84c0 .6-.05 1.1-.17 1.47-.11.37-.3.64-.56.81-.26.17-.6.26-1.05.26a1.9 1.9 0 01-1.07-.26zm20.01-4.68a.79.79 0 00-.13.4c-.02.18-.03.46-.03.83v.41h.94V5c0-.38 0-.65-.03-.84a.8.8 0 00-.14-.4c-.06-.08-.17-.12-.3-.12-.14 0-.24.04-.3.12zm-.16 2.4v.3c0 .37.01.64.03.83.02.18.07.31.14.4.07.08.17.12.32.12.19 0 .32-.07.4-.22.06-.15.1-.4.11-.75l1.11.07.01.2c0 .53-.14.93-.43 1.19-.3.26-.7.4-1.23.4-.64 0-1.08-.2-1.34-.6a3.5 3.5 0 01-.38-1.86v-1c0-.86.13-1.48.4-1.88.26-.4.71-.6 1.36-.6.44 0 .78.09 1.01.25.24.16.4.41.5.76.1.34.15.81.15 1.42v.98h-2.16zm-22.99-.1L14.36.75h1.28l.52 2.4c.13.6.22 1.1.29 1.52h.03c.05-.3.14-.8.3-1.5L17.3.74h1.28l-1.49 5.3V8.6h-1.27V6.05zm10.16-3.18v5.72h-1.01l-.11-.7h-.03c-.27.53-.69.8-1.23.8-.38 0-.66-.13-.85-.38-.18-.25-.27-.63-.27-1.16V2.87h1.3v4.2c0 .26.02.44.08.55.05.1.15.16.28.16a.64.64 0 00.55-.36V2.87h1.29zm6.61 0v5.72h-1l-.12-.7h-.02c-.28.53-.69.8-1.24.8-.38 0-.66-.13-.84-.38-.18-.25-.27-.63-.27-1.16V2.87h1.29v4.2c0 .26.03.44.08.55.06.1.15.16.28.16a.64.64 0 00.55-.36V2.87h1.3z" fill="#272727"/><path d="M29.5 1.79h-1.3v6.8h-1.26V1.8h-1.28V.75h3.82V1.8zm6.2 4.33c0 .42-.03.74-.06.98s-.1.4-.17.5a.4.4 0 01-.33.15.56.56 0 01-.51-.3V4.2a.82.82 0 01.22-.38.5.5 0 01.35-.15c.13 0 .23.05.3.15.07.1.12.28.15.52.03.25.04.6.04 1.04v.74zm1.17-2.34c-.07-.36-.2-.62-.38-.78a1.02 1.02 0 00-.71-.25c-.24 0-.46.07-.67.2-.2.14-.36.31-.47.53h-.01V.46h-1.25V8.6h1.07l.13-.54h.03c.1.2.25.35.45.46.2.11.42.17.66.17a1 1 0 00.96-.6c.2-.4.31-1.03.31-1.89v-.9c0-.65-.04-1.15-.12-1.5z" fill="#272727"/>
    </symbol>
    <!-- vk -->
    <symbol id="social-vk" viewBox="0 0 30 30">
        <rect width="30" height="30" rx="4" fill="#4680C2"/><path d="M22.6 10.7c.1-.4 0-.7-.5-.7h-2c-.4 0-.6.2-.7.5 0 0-1 2.3-2.3 3.8-.4.5-.6.6-.9.6 0 0-.3-.1-.3-.5v-3.7c0-.5-.1-.7-.5-.7h-3c-.2 0-.4.2-.4.4 0 .5.7.6.8 1.8V15c0 .6-.2.7-.4.7-.6 0-2.2-2.3-3-5-.2-.5-.4-.7-.9-.7H6.6c-.5 0-.6.2-.6.5 0 .5.6 3 3 6.2 1.5 2.2 3.6 3.4 5.6 3.4 1.2 0 1.3-.3 1.3-.7 0-2.1 0-2.3.5-2.3.3 0 .8.1 1.9 1.2 1.2 1.2 1.4 1.8 2.2 1.8h1.8c.5 0 .8-.3.7-.8-.4-1-2.8-3.4-2.9-3.5-.3-.4-.2-.5 0-.8 0 0 2.3-3.2 2.5-4.3z" fill="#fff"/>
    </symbol>
    <!-- tg -->
    <symbol id="social-tg" viewBox="0 0 34 34">
        <rect width="34" height="34" rx="4" fill="#2481CC"/><path d="m7.06510669 16.9258959c5.22739451-2.1065178 8.71314291-3.4952633 10.45724521-4.1662364 4.9797665-1.9157646 6.0145193-2.2485535 6.6889567-2.2595423.1483363-.0024169.480005.0315855.6948461.192827.1814076.1361492.23132.3200675.2552048.4491519.0238847.1290844.0536269.4231419.0299841.65291-.2698553 2.6225356-1.4375148 8.986738-2.0315537 11.9240228-.2513602 1.2428753-.7499132 1.5088847-1.2290685 1.5496672-1.0413153.0886298-1.8284257-.4857912-2.8369905-1.0972863-1.5782048-.9568691-2.5327083-1.3984317-4.0646293-2.3321592-1.7703998-1.0790837-.212559-1.583655.7963867-2.5529189.2640459-.2536609 4.7753906-4.3097041 4.755976-4.431706-.0070494-.0442984-.1409018-.481649-.2457499-.5678447-.104848-.0861957-.2595946-.0567202-.3712641-.033278-.1582881.0332286-2.6794907 1.5745492-7.5636077 4.6239616-.715635.4545193-1.3638349.6759763-1.9445998.6643712-.64024672-.0127938-1.87182452-.334829-2.78737602-.6100966-1.12296117-.3376271-1.53748501-.4966332-1.45976769-1.0700283.04048-.2986597.32581586-.610598.8560076-.935815z" fill="#fff"></path>
    </symbol>
    <!-- фотоаппарат -->
    <symbol id="camera" viewBox="0 0 512 512">
        <path d="M448 176H320V144H448V176ZM512 144V400C512 435.344 483.344 464 448 464H64C28.656 464 0 435.344 0 400V144C0 108.656 28.656 80 64 80C64 62.312 78.328 48 96 48H160C177.672 48 192 62.313 192 80H448C483.344 80 512 108.656 512 144ZM352 336C352 283 309.031 240 256 240C202.969 240 160 283 160 336C160 389 202.969 432 256 432C309.031 432 352 389 352 336ZM480 144C480 126.344 465.656 112 448 112H64C46.344 112 32 126.344 32 144V208H480V144ZM256 272C220.719 272 192 300.688 192 336C192 371.312 220.719 400 256 400C291.281 400 320 371.312 320 336C320 300.688 291.281 272 256 272Z" fill="#bababa"/>
    </symbol>
    <!-- car -->
    <symbol id="car" viewBox="0 0 16 16">
        <path d="M2.52 3.515A2.5 2.5 0 0 1 4.82 2h6.362c1 0 1.904.596 2.298 1.515l.792 1.848c.075.175.21.319.38.404.5.25.855.715.965 1.262l.335 1.679q.05.242.049.49v.413c0 .814-.39 1.543-1 1.997V13.5a.5.5 0 0 1-.5.5h-2a.5.5 0 0 1-.5-.5v-1.338c-1.292.048-2.745.088-4 .088s-2.708-.04-4-.088V13.5a.5.5 0 0 1-.5.5h-2a.5.5 0 0 1-.5-.5v-1.892c-.61-.454-1-1.183-1-1.997v-.413a2.5 2.5 0 0 1 .049-.49l.335-1.68c.11-.546.465-1.012.964-1.261a.8.8 0 0 0 .381-.404l.792-1.848ZM3 10a1 1 0 1 0 0-2 1 1 0 0 0 0 2m10 0a1 1 0 1 0 0-2 1 1 0 0 0 0 2M6 8a1 1 0 0 0 0 2h4a1 1 0 1 0 0-2zM2.906 5.189a.51.51 0 0 0 .497.731c.91-.073 3.35-.17 4.597-.17s3.688.097 4.597.17a.51.51 0 0 0 .497-.731l-.956-1.913A.5.5 0 0 0 11.691 3H4.309a.5.5 0 0 0-.447.276L2.906 5.19Z" fill="#64748B"/>
    </symbol>
    <symbol id="car-approval" viewBox="0 0 16 16">
         <path d="M7 2.5a.5.5 0 0 1 .5-.5h7a.5.5 0 0 1 .5.5v1a.5.5 0 0 1-.5.5h-7a.5.5 0 0 1-.5-.5zM2 1a2 2 0 0 0-2 2v2a2 2 0 0 0 2 2h2a2 2 0 0 0 2-2V3a2 2 0 0 0-2-2zm0 8a2 2 0 0 0-2 2v2a2 2 0 0 0 2 2h2a2 2 0 0 0 2-2v-2a2 2 0 0 0-2-2zm.854-3.646a.5.5 0 0 1-.708 0l-1-1a.5.5 0 1 1 .708-.708l.646.647 1.646-1.647a.5.5 0 1 1 .708.708zm0 8a.5.5 0 0 1-.708 0l-1-1a.5.5 0 0 1 .708-.708l.646.647 1.646-1.647a.5.5 0 0 1 .708.708zM7 10.5a.5.5 0 0 1 .5-.5h7a.5.5 0 0 1 .5.5v1a.5.5 0 0 1-.5.5h-7a.5.5 0 0 1-.5-.5zm0-5a.5.5 0 0 1 .5-.5h5a.5.5 0 0 1 0 1h-5a.5.5 0 0 1-.5-.5m0 8a.5.5 0 0 1 .5-.5h5a.5.5 0 0 1 0 1h-5a.5.5 0 0 1-.5-.5" fill="#3a992c"/>
    </symbol>
    <!-- pdf -->
    <symbol id="pdf" viewBox="0 0 16 16">
        <path fill-rule="evenodd" d="M14 4.5V14a2 2 0 0 1-2 2h-1v-1h1a1 1 0 0 0 1-1V4.5h-2A1.5 1.5 0 0 1 9.5 3V1H4a1 1 0 0 0-1 1v9H2V2a2 2 0 0 1 2-2h5.5zM1.6 11.85H0v3.999h.791v-1.342h.803q.43 0 .732-.173.305-.175.463-.474a1.4 1.4 0 0 0 .161-.677q0-.375-.158-.677a1.2 1.2 0 0 0-.46-.477q-.3-.18-.732-.179m.545 1.333a.8.8 0 0 1-.085.38.57.57 0 0 1-.238.241.8.8 0 0 1-.375.082H.788V12.48h.66q.327 0 .512.181.185.183.185.522m1.217-1.333v3.999h1.46q.602 0 .998-.237a1.45 1.45 0 0 0 .595-.689q.196-.45.196-1.084 0-.63-.196-1.075a1.43 1.43 0 0 0-.589-.68q-.396-.234-1.005-.234zm.791.645h.563q.371 0 .609.152a.9.9 0 0 1 .354.454q.118.302.118.753a2.3 2.3 0 0 1-.068.592 1.1 1.1 0 0 1-.196.422.8.8 0 0 1-.334.252 1.3 1.3 0 0 1-.483.082h-.563zm3.743 1.763v1.591h-.79V11.85h2.548v.653H7.896v1.117h1.606v.638z" fill="currentColor"/>
    </symbol>
        <!-- word -->
    <symbol id="word" viewBox="0 0 16 16">
        <path d="M5.485 6.879a.5.5 0 1 0-.97.242l1.5 6a.5.5 0 0 0 .967.01L8 9.402l1.018 3.73a.5.5 0 0 0 .967-.01l1.5-6a.5.5 0 0 0-.97-.242l-1.036 4.144-.997-3.655a.5.5 0 0 0-.964 0l-.997 3.655L5.485 6.88z" fill="currentColor"/>
        <path d="M14 14V4.5L9.5 0H4a2 2 0 0 0-2 2v12a2 2 0 0 0 2 2h8a2 2 0 0 0 2-2M9.5 3A1.5 1.5 0 0 0 11 4.5h2V14a1 1 0 0 1-1 1H4a1 1 0 0 1-1-1V2a1 1 0 0 1 1-1h5.5z" fill="currentColor"/>
    </symbol>
    <!-- other links -->
    <symbol id="other-links" viewBox="0 0 16 16">
        <path d="M4.715 6.542 3.343 7.914a3 3 0 1 0 4.243 4.243l1.828-1.829A3 3 0 0 0 8.586 5.5L8 6.086a1 1 0 0 0-.154.199 2 2 0 0 1 .861 3.337L6.88 11.45a2 2 0 1 1-2.83-2.83l.793-.792a4 4 0 0 1-.128-1.287z" fill="currentColor"/>
        <path d="M6.586 4.672A3 3 0 0 0 7.414 9.5l.775-.776a2 2 0 0 1-.896-3.346L9.12 3.55a2 2 0 1 1 2.83 2.83l-.793.792c.112.42.155.855.128 1.287l1.372-1.372a3 3 0 1 0-4.243-4.243z" fill="currentColor"/>
    </symbol>
     <!-- info -->
    <symbol id="info-circle" viewBox="0 0 16 16">
		<path d="M8 16A8 8 0 1 0 8 0a8 8 0 0 0 0 16m.93-9.412-1 4.705c-.07.34.029.533.304.533.194 0 .487-.07.686-.246l-.088.416c-.287.346-.92.598-1.465.598-.703 0-1.002-.422-.808-1.319l.738-3.468c.064-.293.006-.399-.287-.47l-.451-.081.082-.381 2.29-.287zM8 5.5a1 1 0 1 1 0-2 1 1 0 0 1 0 2" fill="#64748B"/>
    </symbol>
     <!-- продажи -->
    <symbol id="sales" viewBox="0 0 16 16">
        <path d="M1 11a1 1 0 0 1 1-1h2a1 1 0 0 1 1 1v3a1 1 0 0 1-1 1H2a1 1 0 0 1-1-1zm5-4a1 1 0 0 1 1-1h2a1 1 0 0 1 1 1v7a1 1 0 0 1-1 1H7a1 1 0 0 1-1-1zm5-5a1 1 0 0 1 1-1h2a1 1 0 0 1 1 1v12a1 1 0 0 1-1 1h-2a1 1 0 0 1-1-1z" fill="#859400"/>
    </symbol>
    <!-- 1с-тдс -->
    <symbol id="1c-tcd" viewBox="0 0 16 16">
        <path d="M1.5 1a.5.5 0 0 0-.5.5v3a.5.5 0 0 1-1 0v-3A1.5 1.5 0 0 1 1.5 0h3a.5.5 0 0 1 0 1zM11 .5a.5.5 0 0 1 .5-.5h3A1.5 1.5 0 0 1 16 1.5v3a.5.5 0 0 1-1 0v-3a.5.5 0 0 0-.5-.5h-3a.5.5 0 0 1-.5-.5M.5 11a.5.5 0 0 1 .5.5v3a.5.5 0 0 0 .5.5h3a.5.5 0 0 1 0 1h-3A1.5 1.5 0 0 1 0 14.5v-3a.5.5 0 0 1 .5-.5m15 0a.5.5 0 0 1 .5.5v3a1.5 1.5 0 0 1-1.5 1.5h-3a.5.5 0 0 1 0-1h3a.5.5 0 0 0 .5-.5v-3a.5.5 0 0 1 .5-.5M3 4.5a.5.5 0 0 1 1 0v7a.5.5 0 0 1-1 0zm2 0a.5.5 0 0 1 1 0v7a.5.5 0 0 1-1 0zm2 0a.5.5 0 0 1 1 0v7a.5.5 0 0 1-1 0zm2 0a.5.5 0 0 1 .5-.5h1a.5.5 0 0 1 .5.5v7a.5.5 0 0 1-.5.5h-1a.5.5 0 0 1-.5-.5zm3 0a.5.5 0 0 1 1 0v7a.5.5 0 0 1-1 0z" fill="#5f5f5f"/>
    </symbol>
    <!-- qr -->
    <symbol id="qr" viewBox="0 0 16 16">
        <path d="M0 .5A.5.5 0 0 1 .5 0h3a.5.5 0 0 1 0 1H1v2.5a.5.5 0 0 1-1 0zm12 0a.5.5 0 0 1 .5-.5h3a.5.5 0 0 1 .5.5v3a.5.5 0 0 1-1 0V1h-2.5a.5.5 0 0 1-.5-.5M.5 12a.5.5 0 0 1 .5.5V15h2.5a.5.5 0 0 1 0 1h-3a.5.5 0 0 1-.5-.5v-3a.5.5 0 0 1 .5-.5m15 0a.5.5 0 0 1 .5.5v3a.5.5 0 0 1-.5.5h-3a.5.5 0 0 1 0-1H15v-2.5a.5.5 0 0 1 .5-.5M4 4h1v1H4z" fill="#ef7a1c"/>
        <path d="M7 2H2v5h5zM3 3h3v3H3zm2 8H4v1h1z" fill="#ef7a1c"/>
        <path d="M7 9H2v5h5zm-4 1h3v3H3zm8-6h1v1h-1z" fill="#ef7a1c"/>
        <path d="M9 2h5v5H9zm1 1v3h3V3zM8 8v2h1v1H8v1h2v-2h1v2h1v-1h2v-1h-3V8zm2 2H9V9h1zm4 2h-1v1h-2v1h3zm-4 2v-1H8v1z" fill="#ef7a1c"/>
        <path d="M12 9h2V8h-2z" fill="#ef7a1c"/>
    </symbol>
    <!-- map -->
    <symbol id="map" viewBox="0 0 18 18">
       <path fill-rule="evenodd" d="M3.1 11.2a.5.5 0 0 1 .4-.2H6a.5.5 0 0 1 0 1H3.75L1.5 15h13l-2.25-3H10a.5.5 0 0 1 0-1h2.5a.5.5 0 0 1 .4.2l3 4a.5.5 0 0 1-.4.8H.5a.5.5 0 0 1-.4-.8z"/>
  <path fill-rule="evenodd" d="M4 4a4 4 0 1 1 4.5 3.969V13.5a.5.5 0 0 1-1 0V7.97A4 4 0 0 1 4 3.999z" fill="#ef7a1c"/>
    </symbol>
    <!-- info -->
    <symbol id="info" viewBox="0 0 16 16">
         <path d="M14 1a1 1 0 0 1 1 1v12a1 1 0 0 1-1 1H2a1 1 0 0 1-1-1V2a1 1 0 0 1 1-1zM2 0a2 2 0 0 0-2 2v12a2 2 0 0 0 2 2h12a2 2 0 0 0 2-2V2a2 2 0 0 0-2-2z" fill="#64748B"/>
        <path d="m8.93 6.588-2.29.287-.082.38.45.083c.294.07.352.176.288.469l-.738 3.468c-.194.897.105 1.319.808 1.319.545 0 1.178-.252 1.465-.598l.088-.416c-.2.176-.492.246-.686.246-.275 0-.375-.193-.304-.533zM9 4.5a1 1 0 1 1-2 0 1 1 0 0 1 2 0" fill="#64748B"/>
    </symbol>
    <!-- youtube-play -->
    <symbol id="youtube-play" viewBox="0 0 48 48">
        <path fill="#FF3D00" d="M43.2,33.9c-0.4,2.1-2.1,3.7-4.2,4c-3.3,0.5-8.8,1.1-15,1.1c-6.1,0-11.6-0.6-15-1.1c-2.1-0.3-3.8-1.9-4.2-4C4.4,31.6,4,28.2,4,24c0-4.2,0.4-7.6,0.8-9.9c0.4-2.1,2.1-3.7,4.2-4C12.3,9.6,17.8,9,24,9c6.2,0,11.6,0.6,15,1.1c2.1,0.3,3.8,1.9,4.2,4c0.4,2.3,0.9,5.7,0.9,9.9C44,28.2,43.6,31.6,43.2,33.9z"/><path fill="#FFF" d="M20 31L20 17 32 24z"/>
    </symbol>
    <!-- snow -->
    <symbol id="snow" viewBox="0 0 16 16">
        <path d="M8 16a.5.5 0 0 1-.5-.5v-1.293l-.646.647a.5.5 0 0 1-.707-.708L7.5 12.793v-1.086l-.646.647a.5.5 0 0 1-.707-.708L7.5 10.293V8.866l-1.236.713-.495 1.85a.5.5 0 1 1-.966-.26l.237-.882-.94.542-.496 1.85a.5.5 0 1 1-.966-.26l.237-.882-1.12.646a.5.5 0 0 1-.5-.866l1.12-.646-.884-.237a.5.5 0 1 1 .26-.966l1.848.495.94-.542-.882-.237a.5.5 0 1 1 .258-.966l1.85.495L7 8l-1.236-.713-1.849.495a.5.5 0 1 1-.258-.966l.883-.237-.94-.542-1.85.495a.5.5 0 0 1-.258-.966l.883-.237-1.12-.646a.5.5 0 1 1 .5-.866l1.12.646-.237-.883a.5.5 0 0 1 .966-.258l.495 1.849.94.542-.236-.883a.5.5 0 0 1 .966-.258l.495 1.849 1.236.713V5.707L6.147 4.354a.5.5 0 1 1 .707-.708l.646.647V3.207L6.147 1.854a.5.5 0 1 1 .707-.708l.646.647V.5a.5.5 0 0 1 1 0v1.293l.647-.647a.5.5 0 1 1 .707.708L8.5 3.207v1.086l.647-.647a.5.5 0 1 1 .707.708L8.5 5.707v1.427l1.236-.713.495-1.85a.5.5 0 1 1 .966.26l-.236.882.94-.542.495-1.85a.5.5 0 1 1 .966.26l-.236.882 1.12-.646a.5.5 0 0 1 .5.866l-1.12.646.883.237a.5.5 0 1 1-.26.966l-1.848-.495-.94.542.883.237a.5.5 0 1 1-.26.966l-1.848-.495L9 8l1.236.713 1.849-.495a.5.5 0 0 1 .259.966l-.883.237.94.542 1.849-.495a.5.5 0 0 1 .259.966l-.883.237 1.12.646a.5.5 0 0 1-.5.866l-1.12-.646.236.883a.5.5 0 1 1-.966.258l-.495-1.849-.94-.542.236.883a.5.5 0 0 1-.966.258L9.736 9.58 8.5 8.866v1.427l1.354 1.353a.5.5 0 0 1-.707.708l-.647-.647v1.086l1.354 1.353a.5.5 0 0 1-.707.708l-.647-.647V15.5a.5.5 0 0 1-.5.5" fill="#09bfff"/>
    </symbol>
    <!-- sun -->
    <symbol id="sun" viewBox="0 0 16 16">
        <path d="M8 11a3 3 0 1 1 0-6 3 3 0 0 1 0 6m0 1a4 4 0 1 0 0-8 4 4 0 0 0 0 8M8 0a.5.5 0 0 1 .5.5v2a.5.5 0 0 1-1 0v-2A.5.5 0 0 1 8 0m0 13a.5.5 0 0 1 .5.5v2a.5.5 0 0 1-1 0v-2A.5.5 0 0 1 8 13m8-5a.5.5 0 0 1-.5.5h-2a.5.5 0 0 1 0-1h2a.5.5 0 0 1 .5.5M3 8a.5.5 0 0 1-.5.5h-2a.5.5 0 0 1 0-1h2A.5.5 0 0 1 3 8m10.657-5.657a.5.5 0 0 1 0 .707l-1.414 1.415a.5.5 0 1 1-.707-.708l1.414-1.414a.5.5 0 0 1 .707 0m-9.193 9.193a.5.5 0 0 1 0 .707L3.05 13.657a.5.5 0 0 1-.707-.707l1.414-1.414a.5.5 0 0 1 .707 0m9.193 2.121a.5.5 0 0 1-.707 0l-1.414-1.414a.5.5 0 0 1 .707-.707l1.414 1.414a.5.5 0 0 1 0 .707M4.464 4.465a.5.5 0 0 1-.707 0L2.343 3.05a.5.5 0 1 1 .707-.707l1.414 1.414a.5.5 0 0 1 0 .708" fill="#ef7a1c"/>
    </symbol>
    <!-- arrow -->
    <symbol id="arrow" viewBox="0 0 16 16">
        <path fill-rule="evenodd" d="M1 8a.5.5 0 0 1 .5-.5h11.793l-3.147-3.146a.5.5 0 0 1 .708-.708l4 4a.5.5 0 0 1 0 .708l-4 4a.5.5 0 0 1-.708-.708L13.293 8.5H1.5A.5.5 0 0 1 1 8"/>
    </symbol>
    <!-- save -->
    <symbol id="save" viewBox="0 0 16 16">
        <path d="M11 2H9v3h2z" fill="currentColor"/>
        <path d="M1.5 0h11.586a1.5 1.5 0 0 1 1.06.44l1.415 1.414A1.5 1.5 0 0 1 16 2.914V14.5a1.5 1.5 0 0 1-1.5 1.5h-13A1.5 1.5 0 0 1 0 14.5v-13A1.5 1.5 0 0 1 1.5 0M1 1.5v13a.5.5 0 0 0 .5.5H2v-4.5A1.5 1.5 0 0 1 3.5 9h9a1.5 1.5 0 0 1 1.5 1.5V15h.5a.5.5 0 0 0 .5-.5V2.914a.5.5 0 0 0-.146-.353l-1.415-1.415A.5.5 0 0 0 13.086 1H13v4.5A1.5 1.5 0 0 1 11.5 7h-7A1.5 1.5 0 0 1 3 5.5V1H1.5a.5.5 0 0 0-.5.5m3 4a.5.5 0 0 0 .5.5h7a.5.5 0 0 0 .5-.5V1H4zM3 15h10v-4.5a.5.5 0 0 0-.5-.5h-9a.5.5 0 0 0-.5.5z" fill="currentColor"/>
    </symbol>
    <!-- del -->
    <symbol id="del" viewBox="0 0 16 16">
        <path d="M6.5 1h3a.5.5 0 0 1 .5.5v1H6v-1a.5.5 0 0 1 .5-.5M11 2.5v-1A1.5 1.5 0 0 0 9.5 0h-3A1.5 1.5 0 0 0 5 1.5v1H1.5a.5.5 0 0 0 0 1h.538l.853 10.66A2 2 0 0 0 4.885 16h6.23a2 2 0 0 0 1.994-1.84l.853-10.66h.538a.5.5 0 0 0 0-1zm1.958 1-.846 10.58a1 1 0 0 1-.997.92h-6.23a1 1 0 0 1-.997-.92L3.042 3.5zm-7.487 1a.5.5 0 0 1 .528.47l.5 8.5a.5.5 0 0 1-.998.06L5 5.03a.5.5 0 0 1 .47-.53Zm5.058 0a.5.5 0 0 1 .47.53l-.5 8.5a.5.5 0 1 1-.998-.06l.5-8.5a.5.5 0 0 1 .528-.47M8 4.5a.5.5 0 0 1 .5.5v8.5a.5.5 0 0 1-1 0V5a.5.5 0 0 1 .5-.5" fill="currentColor"/>
    </symbol>
    <!-- pen -->
    <symbol id="pen" viewBox="0 0 16 16">
        <path d="m13.498.795.149-.149a1.207 1.207 0 1 1 1.707 1.708l-.149.148a1.5 1.5 0 0 1-.059 2.059L4.854 14.854a.5.5 0 0 1-.233.131l-4 1a.5.5 0 0 1-.606-.606l1-4a.5.5 0 0 1 .131-.232l9.642-9.642a.5.5 0 0 0-.642.056L6.854 4.854a.5.5 0 1 1-.708-.708L9.44.854A1.5 1.5 0 0 1 11.5.796a1.5 1.5 0 0 1 1.998-.001m-.644.766a.5.5 0 0 0-.707 0L1.95 11.756l-.764 3.057 3.057-.764L14.44 3.854a.5.5 0 0 0 0-.708z" fill="currentColor"/>
    </symbol>
    <!-- gear -->
    <symbol id="gear" viewBox="0 0 16 16">
        <path d="M8 4.754a3.246 3.246 0 1 0 0 6.492 3.246 3.246 0 0 0 0-6.492M5.754 8a2.246 2.246 0 1 1 4.492 0 2.246 2.246 0 0 1-4.492 0" fill="currentColor"/>
        <path d="M9.796 1.343c-.527-1.79-3.065-1.79-3.592 0l-.094.319a.873.873 0 0 1-1.255.52l-.292-.16c-1.64-.892-3.433.902-2.54 2.541l.159.292a.873.873 0 0 1-.52 1.255l-.319.094c-1.79.527-1.79 3.065 0 3.592l.319.094a.873.873 0 0 1 .52 1.255l-.16.292c-.892 1.64.901 3.434 2.541 2.54l.292-.159a.873.873 0 0 1 1.255.52l.094.319c.527 1.79 3.065 1.79 3.592 0l.094-.319a.873.873 0 0 1 1.255-.52l.292.16c1.64.893 3.434-.902 2.54-2.541l-.159-.292a.873.873 0 0 1 .52-1.255l.319-.094c1.79-.527 1.79-3.065 0-3.592l-.319-.094a.873.873 0 0 1-.52-1.255l.16-.292c.893-1.64-.902-3.433-2.541-2.54l-.292.159a.873.873 0 0 1-1.255-.52zm-2.633.283c.246-.835 1.428-.835 1.674 0l.094.319a1.873 1.873 0 0 0 2.693 1.115l.291-.16c.764-.415 1.6.42 1.184 1.185l-.159.292a1.873 1.873 0 0 0 1.116 2.692l.318.094c.835.246.835 1.428 0 1.674l-.319.094a1.873 1.873 0 0 0-1.115 2.693l.16.291c.415.764-.42 1.6-1.185 1.184l-.291-.159a1.873 1.873 0 0 0-2.693 1.116l-.094.318c-.246.835-1.428.835-1.674 0l-.094-.319a1.873 1.873 0 0 0-2.692-1.115l-.292.16c-.764.415-1.6-.42-1.184-1.185l.159-.291A1.873 1.873 0 0 0 1.945 8.93l-.319-.094c-.835-.246-.835-1.428 0-1.674l.319-.094A1.873 1.873 0 0 0 3.06 4.377l-.16-.292c-.415-.764.42-1.6 1.185-1.184l.292.159a1.873 1.873 0 0 0 2.692-1.115z" fill="currentColor"/>
    </symbol>
     <!-- dots -->
    <symbol id="dots" viewBox="0 0 16 16">
        <path d="M9.5 13a1.5 1.5 0 1 1-3 0 1.5 1.5 0 0 1 3 0m0-5a1.5 1.5 0 1 1-3 0 1.5 1.5 0 0 1 3 0m0-5a1.5 1.5 0 1 1-3 0 1.5 1.5 0 0 1 3 0"/>
    </symbol>
     <!-- Arrow bar down -->
    <symbol id="arrow-bar-down" viewBox="0 0 16 16">
        <path fill-rule="evenodd" d="M1 3.5a.5.5 0 0 1 .5-.5h13a.5.5 0 0 1 0 1h-13a.5.5 0 0 1-.5-.5M8 6a.5.5 0 0 1 .5.5v5.793l2.146-2.147a.5.5 0 0 1 .708.708l-3 3a.5.5 0 0 1-.708 0l-3-3a.5.5 0 0 1 .708-.708L7.5 12.293V6.5A.5.5 0 0 1 8 6" fill="currentColor"/>
    </symbol>
      <!-- удалить файл -->
    <symbol id="delete" viewBox="0 0 16 16">
        <path d="M6.854 7.146a.5.5 0 1 0-.708.708L7.293 9l-1.147 1.146a.5.5 0 0 0 .708.708L8 9.707l1.146 1.147a.5.5 0 0 0 .708-.708L8.707 9l1.147-1.146a.5.5 0 0 0-.708-.708L8 8.293z" fill="currentColor"/>
        <path d="M14 14V4.5L9.5 0H4a2 2 0 0 0-2 2v12a2 2 0 0 0 2 2h8a2 2 0 0 0 2-2M9.5 3A1.5 1.5 0 0 0 11 4.5h2V14a1 1 0 0 1-1 1H4a1 1 0 0 1-1-1V2a1 1 0 0 1 1-1h5.5z" fill="currentColor"/>
    </symbol>
      <!-- принтер -->
    <symbol id="printer" viewBox="0 0 16 16">
        <path d="M2.5 8a.5.5 0 1 0 0-1 .5.5 0 0 0 0 1" fill="currentColor"/>
        <path d="M5 1a2 2 0 0 0-2 2v2H2a2 2 0 0 0-2 2v3a2 2 0 0 0 2 2h1v1a2 2 0 0 0 2 2h6a2 2 0 0 0 2-2v-1h1a2 2 0 0 0 2-2V7a2 2 0 0 0-2-2h-1V3a2 2 0 0 0-2-2zM4 3a1 1 0 0 1 1-1h6a1 1 0 0 1 1 1v2H4zm1 5a2 2 0 0 0-2 2v1H2a1 1 0 0 1-1-1V7a1 1 0 0 1 1-1h12a1 1 0 0 1 1 1v3a1 1 0 0 1-1 1h-1v-1a2 2 0 0 0-2-2zm7 2v3a1 1 0 0 1-1 1H5a1 1 0 0 1-1-1v-3a1 1 0 0 1 1-1h6a1 1 0 0 1 1 1" fill="currentColor"/>
    </symbol>
     <!-- plus -->
    <symbol id="plus" viewBox="0 0 16 16">
        <path d="M8 15A7 7 0 1 1 8 1a7 7 0 0 1 0 14m0 1A8 8 0 1 0 8 0a8 8 0 0 0 0 16" fill="currentColor"/>
        <path d="M8 4a.5.5 0 0 1 .5.5v3h3a.5.5 0 0 1 0 1h-3v3a.5.5 0 0 1-1 0v-3h-3a.5.5 0 0 1 0-1h3v-3A.5.5 0 0 1 8 4" fill="currentColor"/>
    </symbol>
     <!--  -->
    <symbol id="" viewBox="0 0 16 16">
       
    </symbol>
</svg>